<svg version="1.1" xmlns="http://www.w3.org/2000/svg" viewBox="0 0 2189.5779273645703 1411.7749286558987" width="2189.5779273645703" height="1411.7749286558987" filter="invert(93%) hue-rotate(180deg)">
  <!-- svg-source:excalidraw -->
  
  <defs>
    <style class="style-fonts">
      @font-face {
        font-family: "Virgil";
        src: url("https://excalidraw.com/Virgil.woff2");
      }
      @font-face {
        font-family: "Cascadia";
        src: url("https://excalidraw.com/Cascadia.woff2");
      }
      @font-face {
        font-family: "Assistant";
        src: url("https://excalidraw.com/Assistant-Regular.woff2");
      }
    </style>
    
  </defs>
  <rect x="0" y="0" width="2189.5779273645703" height="1411.7749286558987" fill="#ffffff"></rect><g stroke-linecap="round" transform="translate(1220.3302976432249 1025.0095900775068) rotate(0 101.66666666666663 87.22222222222223)"><path d="M127.5 22 C144.99 35.32, 161.76 50.68, 177.83 66 M127.5 22 C142.2 35.28, 158.15 49.04, 177.83 66 M177.83 66 C204.78 88.19, 203.34 86.09, 177.83 110 M177.83 66 C204.93 89.33, 201.07 90.14, 177.83 110 M177.83 110 C166.71 118.81, 154.11 129.94, 127.5 152.44 M177.83 110 C159.41 125.79, 142.23 141.34, 127.5 152.44 M127.5 152.44 C101.28 173.91, 102.05 176.19, 76.5 152.44 M127.5 152.44 C103.21 174.24, 104.18 175.56, 76.5 152.44 M76.5 152.44 C59.62 138.54, 37.59 121.59, 25.5 110 M76.5 152.44 C59.33 138.34, 42.78 125.63, 25.5 110 M25.5 110 C-0.91 88.38, -1.27 87.64, 25.5 66 M25.5 110 C-1.62 85.8, -0.24 89.64, 25.5 66 M25.5 66 C45.46 49.42, 64.33 31.15, 76.5 22 M25.5 66 C43.33 50.54, 58.93 34.94, 76.5 22 M76.5 22 C102.49 1.49, 100.37 -1.93, 127.5 22 M76.5 22 C103.29 2.16, 104.03 0.74, 127.5 22" stroke="#1e1e1e" stroke-width="2" fill="none"></path></g><g transform="translate(1278.0236773632769 1087.1207011886179) rotate(0 44.13995361328131 25)"><text x="44.13995361328125" y="17.52" font-family="Virgil, Segoe UI Emoji" font-size="20px" fill="#1e1e1e" text-anchor="middle" style="white-space: pre;" direction="ltr" dominant-baseline="alphabetic">Direct </text><text x="44.13995361328125" y="42.519999999999996" font-family="Virgil, Segoe UI Emoji" font-size="20px" fill="#1e1e1e" text-anchor="middle" style="white-space: pre;" direction="ltr" dominant-baseline="alphabetic">Exchange</text></g><g stroke-linecap="round" transform="translate(1221.2412820862892 695.8102344627753) rotate(0 61.5 61.5)"><path d="M84.42 5.4 C93.08 7.98, 102.92 15.35, 109.05 22.74 C115.18 30.14, 119.44 40.46, 121.22 49.75 C123 59.04, 122.41 69.4, 119.74 78.5 C117.06 87.6, 111.48 97.62, 105.18 104.37 C98.89 111.11, 90.73 116.04, 81.97 118.96 C73.22 121.88, 62.2 123.22, 52.66 121.89 C43.13 120.56, 32.49 116.49, 24.75 110.98 C17.02 105.48, 10.32 97.4, 6.24 88.85 C2.17 80.3, 0.11 69.42, 0.3 59.69 C0.49 49.95, 2.59 38.93, 7.37 30.45 C12.14 21.98, 20.65 13.89, 28.94 8.83 C37.22 3.77, 46.38 0.02, 57.08 0.08 C67.77 0.14, 86.2 6.91, 93.13 9.18 C100.05 11.46, 99.16 12.84, 98.61 13.73 M33.47 8.05 C41.11 3.48, 51.87 1.22, 61.63 1.04 C71.38 0.87, 83.43 2.83, 92 7.02 C100.57 11.21, 107.8 18.21, 113.06 26.18 C118.33 34.16, 122.53 45.28, 123.61 54.88 C124.68 64.47, 123.05 75.08, 119.51 83.74 C115.96 92.4, 109.46 100.74, 102.36 106.82 C95.26 112.9, 86.26 117.69, 76.89 120.23 C67.52 122.76, 55.68 124.22, 46.16 122.04 C36.65 119.86, 27.06 113.52, 19.8 107.16 C12.54 100.81, 5.94 93.03, 2.58 83.92 C-0.78 74.8, -1.89 62.09, -0.35 52.47 C1.19 42.84, 6.26 33.89, 11.8 26.17 C17.35 18.46, 29.3 9.31, 32.91 6.18 C36.52 3.06, 32.86 6.51, 33.48 7.42" stroke="#1e1e1e" stroke-width="2" fill="none"></path></g><g transform="translate(1257.314235490094 744.8231674198025) rotate(0 25.439979553222656 12.5)"><text x="25.439979553222656" y="17.52" font-family="Virgil, Segoe UI Emoji" font-size="20px" fill="#1e1e1e" text-anchor="middle" style="white-space: pre;" direction="ltr" dominant-baseline="alphabetic">Admin</text></g><g stroke-linecap="round" transform="translate(1471.72712304005 862.9778440457609) rotate(0 97 30)"><path d="M15 0 C78.63 -3.06, 143.15 -2.31, 179 0 M15 0 C58.71 0.63, 103.48 1.27, 179 0 M179 0 C190.67 -1.22, 192 5.2, 194 15 M179 0 C187.28 2.02, 194.02 4.78, 194 15 M194 15 C193.92 24.79, 193.73 35.83, 194 45 M194 15 C193.61 23.96, 194.77 32.11, 194 45 M194 45 C194.87 56.09, 190.39 58.67, 179 60 M194 45 C193.55 54.39, 190.06 62.29, 179 60 M179 60 C115.22 63.02, 51.97 61.56, 15 60 M179 60 C132.05 60.14, 82.99 60.29, 15 60 M15 60 C4.17 59.89, -0.2 53.86, 0 45 M15 60 C6.44 59.36, -2.08 55.68, 0 45 M0 45 C0.71 36.96, -1.6 26.87, 0 15 M0 45 C-0.81 32.6, -0.75 22.48, 0 15 M0 15 C1.34 4.99, 4.46 -0.88, 15 0 M0 15 C0.8 6.12, 4.59 1.49, 15 0" stroke="#1e1e1e" stroke-width="2" fill="none"></path></g><g transform="translate(1480.327235955089 880.4778440457609) rotate(0 88.39988708496094 12.5)"><text x="88.39988708496094" y="17.52" font-family="Virgil, Segoe UI Emoji" font-size="20px" fill="#1e1e1e" text-anchor="middle" style="white-space: pre;" direction="ltr" dominant-baseline="alphabetic">request log queue</text></g><g stroke-linecap="round"><g transform="translate(1572.4465799678999 1026.4610125853478) rotate(0 -0.5914751717389208 -51.24158426979342)"><path d="M0.37 1.1 C-0.16 -16.18, -1.78 -85.9, -2.04 -103.31 M-0.9 0.63 C-1.15 -16.54, 0.39 -85.01, 0.22 -102.21" stroke="#1e1e1e" stroke-width="2" fill="none"></path></g><g transform="translate(1572.4465799678999 1026.4610125853478) rotate(0 -0.5914751717389208 -51.24158426979342)"><path d="M8.58 -78.65 C7.03 -89.39, 0.51 -97.29, 0.22 -102.21 M8.58 -78.65 C7.23 -83.84, 5.65 -88.3, 0.22 -102.21" stroke="#1e1e1e" stroke-width="2" fill="none"></path></g><g transform="translate(1572.4465799678999 1026.4610125853478) rotate(0 -0.5914751717389208 -51.24158426979342)"><path d="M-8.52 -78.78 C-3.29 -89.53, -3.03 -97.37, 0.22 -102.21 M-8.52 -78.78 C-6.03 -84.03, -3.76 -88.46, 0.22 -102.21" stroke="#1e1e1e" stroke-width="2" fill="none"></path></g></g><mask></mask><g stroke-linecap="round"><g transform="translate(1495.8900076686034 860.9778440457609) rotate(0 -78.39187468147657 -38.331587790284615)"><path d="M-0.96 1.12 C-27.13 -11.56, -131.2 -62.7, -157.14 -75.55 M0.74 0.66 C-25.61 -12.37, -131.94 -63.98, -158.28 -77.09" stroke="#1e1e1e" stroke-width="2" fill="none"></path></g><g transform="translate(1495.8900076686034 860.9778440457609) rotate(0 -78.39187468147657 -38.331587790284615)"><path d="M-133.43 -74.41 C-138.73 -75.98, -145.89 -75.93, -158.28 -77.09 M-133.43 -74.41 C-143.16 -75.92, -150.18 -76.38, -158.28 -77.09" stroke="#1e1e1e" stroke-width="2" fill="none"></path></g><g transform="translate(1495.8900076686034 860.9778440457609) rotate(0 -78.39187468147657 -38.331587790284615)"><path d="M-140.96 -59.06 C-144.16 -64.99, -149.15 -69.35, -158.28 -77.09 M-140.96 -59.06 C-148.1 -66.1, -152.43 -72.04, -158.28 -77.09" stroke="#1e1e1e" stroke-width="2" fill="none"></path></g></g><mask></mask><g stroke-linecap="round" transform="translate(887.3937897067167 1007.088955156872) rotate(0 104.5 27)"><path d="M13.5 0 C64.98 -1.9, 111.89 -2.02, 195.5 0 M13.5 0 C78.25 0.98, 141.2 0.28, 195.5 0 M195.5 0 C205.58 0.3, 208.15 6.17, 209 13.5 M195.5 0 C202.49 -0.74, 210.95 5.35, 209 13.5 M209 13.5 C210.5 21.33, 210.3 28.88, 209 40.5 M209 13.5 C209.09 21.59, 208.29 30.61, 209 40.5 M209 40.5 C208.1 47.55, 203.45 53.03, 195.5 54 M209 40.5 C207.82 49.35, 202.31 54.15, 195.5 54 M195.5 54 C142.21 55.72, 91.76 54.11, 13.5 54 M195.5 54 C157.23 53.52, 119.58 53.94, 13.5 54 M13.5 54 C5.42 55.38, 1.72 48.91, 0 40.5 M13.5 54 C3.32 52.05, -0.57 47.79, 0 40.5 M0 40.5 C0.71 29.4, -0.23 19.55, 0 13.5 M0 40.5 C-0.73 30.78, 1.09 21.32, 0 13.5 M0 13.5 C-1.57 5.24, 3.32 1.32, 13.5 0 M0 13.5 C-1.75 3.15, 2.74 1.44, 13.5 0" stroke="#1e1e1e" stroke-width="2" fill="none"></path></g><g transform="translate(938.6538528781034 1021.588955156872) rotate(0 53.23993682861328 12.5)"><text x="53.23993682861328" y="17.52" font-family="Virgil, Segoe UI Emoji" font-size="20px" fill="#1e1e1e" text-anchor="middle" style="white-space: pre;" direction="ltr" dominant-baseline="alphabetic">knee queue</text></g><g stroke-linecap="round" transform="translate(888.1160119289389 1100.088955156872) rotate(0 104.5 27)"><path d="M13.5 0 C69.63 0.38, 123.7 1.21, 195.5 0 M13.5 0 C75.95 0.53, 139.67 0.94, 195.5 0 M195.5 0 C205.48 1.87, 210.16 6.13, 209 13.5 M195.5 0 C203.7 -1.96, 209.57 2.94, 209 13.5 M209 13.5 C207.89 23.34, 209.22 32.18, 209 40.5 M209 13.5 C208.39 19.79, 208.18 25.9, 209 40.5 M209 40.5 C208.98 50.35, 203.73 52.3, 195.5 54 M209 40.5 C207.98 47.68, 204.9 55.26, 195.5 54 M195.5 54 C157.6 53.96, 115.93 55.3, 13.5 54 M195.5 54 C124.55 54.53, 54.81 54.19, 13.5 54 M13.5 54 C4.37 55.07, 1.3 49.13, 0 40.5 M13.5 54 C6.58 54.46, 0.13 48.47, 0 40.5 M0 40.5 C1.09 35.97, -1.66 26.48, 0 13.5 M0 40.5 C-0.64 31.74, 0.86 25.32, 0 13.5 M0 13.5 C1.43 2.55, 3.65 -1.34, 13.5 0 M0 13.5 C1.9 2.63, 6.71 1.63, 13.5 0" stroke="#1e1e1e" stroke-width="2" fill="none"></path></g><g transform="translate(935.0460808986654 1114.588955156872) rotate(0 57.56993103027344 12.5)"><text x="57.56993103027344" y="17.52" font-family="Virgil, Segoe UI Emoji" font-size="20px" fill="#1e1e1e" text-anchor="middle" style="white-space: pre;" direction="ltr" dominant-baseline="alphabetic">elbow queue</text></g><g stroke-linecap="round" transform="translate(885.8937897067167 1189.088955156872) rotate(0 104.5 27)"><path d="M13.5 0 C50.85 2.23, 88.8 2.41, 195.5 0 M13.5 0 C83.22 0.87, 153.2 1.6, 195.5 0 M195.5 0 C204.19 -1.12, 208.71 4.7, 209 13.5 M195.5 0 C202.66 -1.75, 208.53 3.88, 209 13.5 M209 13.5 C209.68 20.07, 209.91 25.92, 209 40.5 M209 13.5 C209.05 19.86, 208.04 25.6, 209 40.5 M209 40.5 C210.9 50.94, 202.73 53.11, 195.5 54 M209 40.5 C208.5 51.48, 204.57 54.55, 195.5 54 M195.5 54 C153.16 53.51, 112.84 54.94, 13.5 54 M195.5 54 C144.29 53.92, 92.21 54.47, 13.5 54 M13.5 54 C4.15 55.12, 1.53 47.87, 0 40.5 M13.5 54 C2.31 53.76, -2.11 48.02, 0 40.5 M0 40.5 C1.19 36.22, -1.7 28.23, 0 13.5 M0 40.5 C0.74 34.91, -0.49 28.33, 0 13.5 M0 13.5 C-0.84 5.13, 4.53 0.04, 13.5 0 M0 13.5 C-2.22 4.08, 3.44 1.79, 13.5 0" stroke="#1e1e1e" stroke-width="2" fill="none"></path></g><g transform="translate(945.5738510470487 1203.588955156872) rotate(0 44.81993865966797 12.5)"><text x="44.81993865966797" y="17.52" font-family="Virgil, Segoe UI Emoji" font-size="20px" fill="#1e1e1e" text-anchor="middle" style="white-space: pre;" direction="ltr" dominant-baseline="alphabetic">hip queue</text></g><g stroke-linecap="round"><g transform="translate(1224.2551246292105 1107.5470250589567) rotate(0 -63.43066746124691 -30.37721220782828)"><path d="M-0.14 0.38 C-21.08 -9.7, -105.34 -49.85, -126.36 -59.92 M-1.67 -0.47 C-22.67 -10.92, -106.21 -51.35, -127.04 -61.6" stroke="#1e1e1e" stroke-width="2" fill="none"></path></g><g transform="translate(1224.2551246292105 1107.5470250589567) rotate(0 -63.43066746124691 -30.37721220782828)"><path d="M-102.17 -58.99 C-107.57 -58.81, -112.81 -59.18, -127.04 -61.6 M-102.17 -58.99 C-112.14 -59.27, -119.14 -60.33, -127.04 -61.6" stroke="#1e1e1e" stroke-width="2" fill="none"></path></g><g transform="translate(1224.2551246292105 1107.5470250589567) rotate(0 -63.43066746124691 -30.37721220782828)"><path d="M-109.67 -43.62 C-113.32 -47.14, -116.75 -51.23, -127.04 -61.6 M-109.67 -43.62 C-116.96 -49.47, -121.26 -56.07, -127.04 -61.6" stroke="#1e1e1e" stroke-width="2" fill="none"></path></g></g><mask></mask><g stroke-linecap="round"><g transform="translate(1220.630549487034 1113.8069913584154) rotate(0 -61.007268779047536 6.4856307281045815)"><path d="M-0.97 -1.09 C-21 0.97, -101.12 9.71, -121.3 12.25 M0.73 0.95 C-19.31 3.16, -101.28 11.5, -121.87 13.41" stroke="#1e1e1e" stroke-width="2" fill="none"></path></g><g transform="translate(1220.630549487034 1113.8069913584154) rotate(0 -61.007268779047536 6.4856307281045815)"><path d="M-99.32 2.61 C-105.9 5.9, -110.03 6.93, -121.87 13.41 M-99.32 2.61 C-108.12 7.21, -116.85 11.88, -121.87 13.41" stroke="#1e1e1e" stroke-width="2" fill="none"></path></g><g transform="translate(1220.630549487034 1113.8069913584154) rotate(0 -61.007268779047536 6.4856307281045815)"><path d="M-97.65 19.63 C-104.57 19.32, -109.05 16.77, -121.87 13.41 M-97.65 19.63 C-107.09 17.48, -116.49 15.39, -121.87 13.41" stroke="#1e1e1e" stroke-width="2" fill="none"></path></g></g><mask></mask><g stroke-linecap="round"><g transform="translate(1215.011839686977 1118.4759039256082) rotate(0 -59.55902499013024 46.11239742051582)"><path d="M-0.15 -0.34 C-19.81 15.1, -98.19 77.13, -118.16 92.4 M-1.68 -1.57 C-21.41 14.12, -99.3 78.41, -118.61 94.03" stroke="#1e1e1e" stroke-width="2" fill="none"></path></g><g transform="translate(1215.011839686977 1118.4759039256082) rotate(0 -59.55902499013024 46.11239742051582)"><path d="M-105.84 72.54 C-110.12 80.27, -112.91 83.37, -118.61 94.03 M-105.84 72.54 C-108.23 76.78, -111.89 81.66, -118.61 94.03" stroke="#1e1e1e" stroke-width="2" fill="none"></path></g><g transform="translate(1215.011839686977 1118.4759039256082) rotate(0 -59.55902499013024 46.11239742051582)"><path d="M-95.01 85.78 C-102.36 89.7, -108.25 89.01, -118.61 94.03 M-95.01 85.78 C-99.84 87.08, -105.92 88.99, -118.61 94.03" stroke="#1e1e1e" stroke-width="2" fill="none"></path></g></g><mask></mask><g stroke-linecap="round" transform="translate(641.6715674844945 988.5611773790943) rotate(0 61.5 61.5)"><path d="M86.44 6.27 C95.24 9.07, 105.31 16.13, 111.12 23.64 C116.93 31.15, 119.74 41.71, 121.29 51.33 C122.84 60.94, 123.31 72.39, 120.41 81.31 C117.5 90.23, 110.77 98.5, 103.85 104.85 C96.94 111.21, 88.05 116.5, 78.92 119.45 C69.8 122.4, 58.45 124.16, 49.1 122.53 C39.76 120.9, 30.18 115.59, 22.85 109.68 C15.53 103.77, 8.93 95.98, 5.13 87.09 C1.34 78.2, -0.59 65.93, 0.11 56.35 C0.8 46.77, 4.41 37.43, 9.29 29.62 C14.17 21.8, 21.3 14.43, 29.39 9.48 C37.49 4.54, 47.61 0.51, 57.86 -0.05 C68.11 -0.62, 85.22 4.62, 90.9 6.08 C96.58 7.54, 92.61 7.49, 91.93 8.71 M47.22 0.92 C55.9 -2.21, 67.5 0.23, 76.73 2.74 C85.97 5.24, 95.46 10.17, 102.62 15.95 C109.78 21.74, 116.55 28.97, 119.68 37.45 C122.82 45.93, 122.44 57.1, 121.43 66.82 C120.41 76.54, 118.92 87.86, 113.58 95.76 C108.24 103.66, 97.87 109.52, 89.4 114.24 C80.93 118.97, 72.14 123.53, 62.76 124.12 C53.38 124.72, 41.64 122.36, 33.12 117.8 C24.59 113.24, 17.02 104.75, 11.62 96.75 C6.22 88.76, 2.23 79.23, 0.73 69.84 C-0.77 60.45, -0.72 49.47, 2.62 40.43 C5.96 31.38, 13.59 22.04, 20.78 15.58 C27.96 9.12, 41.37 3.71, 45.73 1.67 C50.09 -0.36, 46.51 2.3, 46.91 3.35" stroke="#1e1e1e" stroke-width="2" fill="none"></path></g><g transform="translate(672.0045306539241 1037.5741103361215) rotate(0 31.179969787597656 12.5)"><text x="31.179969787597656" y="17.52" font-family="Virgil, Segoe UI Emoji" font-size="20px" fill="#1e1e1e" text-anchor="middle" style="white-space: pre;" direction="ltr" dominant-baseline="alphabetic">Tech 1</text></g><g stroke-linecap="round" transform="translate(638.3382341511609 1150.7833996013164) rotate(0 61.5 61.5)"><path d="M44.6 2.8 C53.1 -0.27, 65.09 -0.53, 74.51 1.57 C83.92 3.66, 93.79 9.39, 101.11 15.37 C108.43 21.35, 114.8 28.7, 118.42 37.45 C122.04 46.19, 123.88 58.08, 122.84 67.86 C121.8 77.64, 117.49 88.24, 112.16 96.11 C106.84 103.99, 98.95 110.8, 90.89 115.12 C82.83 119.44, 73.3 121.93, 63.82 122.03 C54.33 122.13, 42.74 119.63, 33.99 115.72 C25.24 111.82, 16.96 106.11, 11.32 98.6 C5.67 91.08, 1.33 80.1, 0.13 70.65 C-1.06 61.2, 1.02 50.79, 4.15 41.9 C7.28 33.01, 11.39 23.98, 18.91 17.33 C26.43 10.68, 43.66 4.47, 49.27 2.02 C54.88 -0.42, 52.66 1.89, 52.58 2.65 M34.57 4.22 C42.34 -0.17, 55.69 0.23, 65.34 1.22 C75 2.22, 84.37 5.54, 92.52 10.18 C100.67 14.82, 109.15 21.16, 114.24 29.07 C119.32 36.97, 122.64 48.04, 123.04 57.6 C123.44 67.15, 120.4 77.81, 116.62 86.43 C112.83 95.04, 107.67 103.42, 100.34 109.28 C93.01 115.15, 82 119.76, 72.63 121.62 C63.26 123.49, 53.08 123.21, 44.11 120.48 C35.14 117.76, 25.54 112.13, 18.81 105.28 C12.08 98.42, 6.51 88.67, 3.73 79.34 C0.95 70.01, 0.78 58.79, 2.14 49.29 C3.49 39.79, 6.41 29.73, 11.85 22.33 C17.28 14.93, 30.7 7.54, 34.75 4.87 C38.8 2.19, 35.75 5.31, 36.13 6.3" stroke="#1e1e1e" stroke-width="2" fill="none"></path></g><g transform="translate(664.2612012878758 1199.7963325583437) rotate(0 35.5899658203125 12.5)"><text x="35.5899658203125" y="17.52" font-family="Virgil, Segoe UI Emoji" font-size="20px" fill="#1e1e1e" text-anchor="middle" style="white-space: pre;" direction="ltr" dominant-baseline="alphabetic">Tech 2</text></g><g stroke-linecap="round"><g transform="translate(884.2826785956055 1032.050349411198) rotate(0 -60.52583847689354 -1.059500915275052)"><path d="M-0.98 -0.55 C-21.06 -0.75, -101.12 -2.1, -121.33 -2.42 M0.71 1.78 C-19.48 1.86, -102.31 -0.53, -122.43 -1.04" stroke="#1e1e1e" stroke-width="2" fill="none"></path></g><g transform="translate(884.2826785956055 1032.050349411198) rotate(0 -60.52583847689354 -1.059500915275052)"><path d="M-98.71 -8.95 C-105.16 -7.79, -110.2 -7.49, -122.43 -1.04 M-98.71 -8.95 C-105.18 -6.49, -111.16 -5.51, -122.43 -1.04" stroke="#1e1e1e" stroke-width="2" fill="none"></path></g><g transform="translate(884.2826785956055 1032.050349411198) rotate(0 -60.52583847689354 -1.059500915275052)"><path d="M-99.17 8.14 C-105.34 5.37, -110.28 1.74, -122.43 -1.04 M-99.17 8.14 C-105.67 5.9, -111.53 2.18, -122.43 -1.04" stroke="#1e1e1e" stroke-width="2" fill="none"></path></g></g><mask></mask><g stroke-linecap="round"><g transform="translate(878.7271230400501 1119.0079749803108) rotate(0 -56.96212436305086 -29.281288957449334)"><path d="M0.25 0.6 C-18.71 -9.41, -94.21 -49.78, -113.14 -59.55 M-1.08 -0.13 C-20.19 -10.07, -94.89 -48.54, -113.68 -58.53" stroke="#1e1e1e" stroke-width="2" fill="none"></path></g><g transform="translate(878.7271230400501 1119.0079749803108) rotate(0 -56.96212436305086 -29.281288957449334)"><path d="M-88.9 -55.24 C-96.64 -55.04, -108 -56.55, -113.68 -58.53 M-88.9 -55.24 C-96.99 -56.27, -105.2 -57.87, -113.68 -58.53" stroke="#1e1e1e" stroke-width="2" fill="none"></path></g><g transform="translate(878.7271230400501 1119.0079749803108) rotate(0 -56.96212436305086 -29.281288957449334)"><path d="M-96.81 -40.08 C-101.83 -45.23, -110.41 -52.08, -113.68 -58.53 M-96.81 -40.08 C-102.1 -46.42, -107.57 -53.27, -113.68 -58.53" stroke="#1e1e1e" stroke-width="2" fill="none"></path></g></g><mask></mask><g stroke-linecap="round"><g transform="translate(877.616011928939 1130.3821655169097) rotate(0 -53.7051148177774 28.68792373888499)"><path d="M0.76 0.2 C-17.03 9.87, -89.87 48.33, -107.72 58 M-0.3 -0.73 C-18.19 8.59, -91.12 46.7, -108.84 56.2" stroke="#1e1e1e" stroke-width="2" fill="none"></path></g><g transform="translate(877.616011928939 1130.3821655169097) rotate(0 -53.7051148177774 28.68792373888499)"><path d="M-92.06 37.67 C-95.37 41.28, -98.32 47.54, -108.84 56.2 M-92.06 37.67 C-97.46 44.58, -105.51 50.42, -108.84 56.2" stroke="#1e1e1e" stroke-width="2" fill="none"></path></g><g transform="translate(877.616011928939 1130.3821655169097) rotate(0 -53.7051148177774 28.68792373888499)"><path d="M-84.07 52.79 C-89.12 53.17, -93.81 56.14, -108.84 56.2 M-84.07 52.79 C-92.34 54.07, -103.34 54.34, -108.84 56.2" stroke="#1e1e1e" stroke-width="2" fill="none"></path></g></g><mask></mask><g stroke-linecap="round"><g transform="translate(879.8382341511611 1222.7114226611368) rotate(0 -56.700855629468464 -1.0424947683795267)"><path d="M-0.15 0.75 C-19.12 0.62, -95.37 -0.91, -114.15 -1.3 M-1.69 0.1 C-20.24 -0.32, -93.23 -2.39, -111.84 -3.02" stroke="#1e1e1e" stroke-width="2" fill="none"></path></g><g transform="translate(879.8382341511611 1222.7114226611368) rotate(0 -56.700855629468464 -1.0424947683795267)"><path d="M-88.09 -10.85 C-93.33 -10, -99.72 -5.72, -111.84 -3.02 M-88.09 -10.85 C-95.97 -7.27, -103.64 -4.89, -111.84 -3.02" stroke="#1e1e1e" stroke-width="2" fill="none"></path></g><g transform="translate(879.8382341511611 1222.7114226611368) rotate(0 -56.700855629468464 -1.0424947683795267)"><path d="M-88.62 6.25 C-93.63 2.45, -99.89 2.09, -111.84 -3.02 M-88.62 6.25 C-96.27 3.98, -103.75 0.52, -111.84 -3.02" stroke="#1e1e1e" stroke-width="2" fill="none"></path></g></g><mask></mask><g stroke-linecap="round" transform="translate(310.3937897067168 1035.0611773790943) rotate(0 101.66666666666664 87.2222222222222)"><path d="M127.5 22 C141.73 36.96, 158.92 48.83, 177.83 66 M127.5 22 C141.8 34.96, 157.59 47.18, 177.83 66 M177.83 66 C204.79 86.63, 204.21 88.23, 177.83 110 M177.83 66 C202.95 88.65, 201.21 89.33, 177.83 110 M177.83 110 C167.23 121.41, 152.24 129.07, 127.5 152.44 M177.83 110 C166.93 118.85, 158.1 126.75, 127.5 152.44 M127.5 152.44 C100.3 174.56, 101.59 173.43, 76.5 152.44 M127.5 152.44 C101.07 172.71, 103.18 174.73, 76.5 152.44 M76.5 152.44 C62.88 140.63, 49.58 132.14, 25.5 110 M76.5 152.44 C64.22 142.98, 54.38 133.28, 25.5 110 M25.5 110 C-0.67 88.88, 0.31 89.79, 25.5 66 M25.5 110 C-0.22 87.82, 0.1 89.22, 25.5 66 M25.5 66 C40.24 52.08, 54.67 41.23, 76.5 22 M25.5 66 C37.86 55.83, 51.34 44.11, 76.5 22 M76.5 22 C100.89 0.66, 103.37 0.33, 127.5 22 M76.5 22 C101.37 1.95, 100.14 1.72, 127.5 22" stroke="#1e1e1e" stroke-width="2" fill="none"></path></g><g transform="translate(368.08716942676887 1097.1722884902053) rotate(0 44.13995361328125 25)"><text x="44.13995361328125" y="17.52" font-family="Virgil, Segoe UI Emoji" font-size="20px" fill="#1e1e1e" text-anchor="middle" style="white-space: pre;" direction="ltr" dominant-baseline="alphabetic">Fanout</text><text x="44.13995361328125" y="42.519999999999996" font-family="Virgil, Segoe UI Emoji" font-size="20px" fill="#1e1e1e" text-anchor="middle" style="white-space: pre;" direction="ltr" dominant-baseline="alphabetic">Exchange</text></g><g stroke-linecap="round"><g transform="translate(634.2716426852267 1056.6128046155422) rotate(0 -62.59491577104842 29.654111788470402)"><path d="M-0.56 1.01 C-21.62 11.04, -105.2 49.41, -125.93 59.15 M1.34 0.5 C-19.36 10.81, -102.46 50.54, -123.61 60.61" stroke="#1e1e1e" stroke-width="2" fill="none"></path></g><g transform="translate(634.2716426852267 1056.6128046155422) rotate(0 -62.59491577104842 29.654111788470402)"><path d="M-106.1 42.77 C-110.4 47.39, -118.19 55, -123.61 60.61 M-106.1 42.77 C-112.14 47.88, -116.93 54.34, -123.61 60.61" stroke="#1e1e1e" stroke-width="2" fill="none"></path></g><g transform="translate(634.2716426852267 1056.6128046155422) rotate(0 -62.59491577104842 29.654111788470402)"><path d="M-98.73 58.2 C-105.35 57.65, -115.6 60.11, -123.61 60.61 M-98.73 58.2 C-107.09 58.39, -114.2 59.99, -123.61 60.61" stroke="#1e1e1e" stroke-width="2" fill="none"></path></g></g><mask></mask><g stroke-linecap="round"><g transform="translate(631.395219705837 1185.556648849758) rotate(0 -61.42825897535457 -28.752197383799086)"><path d="M-0.07 -1.02 C-20.22 -10.84, -101.43 -49.31, -121.9 -58.68 M-1.56 1.06 C-21.7 -8.68, -101.99 -48.29, -122.35 -57.76" stroke="#1e1e1e" stroke-width="2" fill="none"></path></g><g transform="translate(631.395219705837 1185.556648849758) rotate(0 -61.42825897535457 -28.752197383799086)"><path d="M-97.48 -55.28 C-104.57 -54.25, -110.22 -56.48, -122.35 -57.76 M-97.48 -55.28 C-105.49 -55.83, -113.01 -56.83, -122.35 -57.76" stroke="#1e1e1e" stroke-width="2" fill="none"></path></g><g transform="translate(631.395219705837 1185.556648849758) rotate(0 -61.42825897535457 -28.752197383799086)"><path d="M-104.89 -39.87 C-110.41 -42.17, -114.46 -47.74, -122.35 -57.76 M-104.89 -39.87 C-110.41 -45.4, -115.54 -51.37, -122.35 -57.76" stroke="#1e1e1e" stroke-width="2" fill="none"></path></g></g><mask></mask><g stroke-linecap="round" transform="translate(1463.7271230400495 1021.7278440457615) rotate(0 101.66666666666663 87.2222222222222)"><path d="M127.5 22 C144.51 35.1, 157.13 49.55, 177.83 66 M127.5 22 C145.88 37.99, 166.15 55.79, 177.83 66 M177.83 66 C205.05 89.64, 204.23 88.73, 177.83 110 M177.83 66 C203.26 87.15, 202.38 88.49, 177.83 110 M177.83 110 C160.18 122.84, 145.88 137.95, 127.5 152.44 M177.83 110 C162.27 121.76, 146.88 135.81, 127.5 152.44 M127.5 152.44 C103.14 173.01, 100.37 173.18, 76.5 152.44 M127.5 152.44 C104.18 175.93, 101.49 174.06, 76.5 152.44 M76.5 152.44 C58.93 139.32, 41.08 121.87, 25.5 110 M76.5 152.44 C63.63 141.89, 50.19 131.46, 25.5 110 M25.5 110 C-1.19 89.44, -0.43 87.97, 25.5 66 M25.5 110 C1.13 90.11, 1.22 86.83, 25.5 66 M25.5 66 C43.57 47.42, 66.81 33.53, 76.5 22 M25.5 66 C40.28 53.96, 54.56 40.14, 76.5 22 M76.5 22 C103.8 1.36, 102.46 0.61, 127.5 22 M76.5 22 C103.83 -0.5, 99.8 -1.14, 127.5 22" stroke="#1e1e1e" stroke-width="2" fill="none"></path></g><g transform="translate(1521.4205027601015 1083.8389551568725) rotate(0 44.13995361328125 25)"><text x="44.13995361328125" y="17.52" font-family="Virgil, Segoe UI Emoji" font-size="20px" fill="#1e1e1e" text-anchor="middle" style="white-space: pre;" direction="ltr" dominant-baseline="alphabetic">Fanout</text><text x="44.13995361328125" y="42.519999999999996" font-family="Virgil, Segoe UI Emoji" font-size="20px" fill="#1e1e1e" text-anchor="middle" style="white-space: pre;" direction="ltr" dominant-baseline="alphabetic">Exchange</text></g><g stroke-linecap="round"><g transform="translate(1462.7389586529332 1109.1034649121616) rotate(0 -21.66695979030726 -0.9213923095691143)"><path d="M0.11 -0.4 C-7.17 -0.82, -36.7 -2.02, -43.88 -2.17 M-0.5 0.59 C-7.6 0.2, -35.81 -1.2, -42.92 -1.64" stroke="#1e1e1e" stroke-width="2" fill="none"></path></g><g transform="translate(1462.7389586529332 1109.1034649121616) rotate(0 -21.66695979030726 -0.9213923095691143)"><path d="M-22.16 -7.92 C-28.26 -7.26, -33.53 -4, -42.92 -1.64 M-22.16 -7.92 C-30.59 -5.84, -38.88 -2.58, -42.92 -1.64" stroke="#1e1e1e" stroke-width="2" fill="none"></path></g><g transform="translate(1462.7389586529332 1109.1034649121616) rotate(0 -21.66695979030726 -0.9213923095691143)"><path d="M-22.98 6.89 C-28.91 3.7, -33.97 3.12, -42.92 -1.64 M-22.98 6.89 C-31.03 3.1, -39 0.47, -42.92 -1.64" stroke="#1e1e1e" stroke-width="2" fill="none"></path></g></g><mask></mask><g stroke-linecap="round" transform="translate(655.8269803611441 715.3719113236787) rotate(0 137.77777777777771 28.888888888888914)"><path d="M14.44 0 C106.12 -0.29, 200.43 1.09, 261.11 0 M14.44 0 C85.36 -0.84, 154.26 -0.59, 261.11 0 M261.11 0 C270.89 0.47, 275.09 5.17, 275.56 14.44 M261.11 0 C269.11 0.5, 276.3 4.09, 275.56 14.44 M275.56 14.44 C275.18 20.04, 273.81 27.66, 275.56 43.33 M275.56 14.44 C276.27 24.58, 276.64 32.61, 275.56 43.33 M275.56 43.33 C277.01 51.2, 268.97 55.83, 261.11 57.78 M275.56 43.33 C276.7 53.95, 269.41 59.35, 261.11 57.78 M261.11 57.78 C192.01 56.63, 121.07 58.56, 14.44 57.78 M261.11 57.78 C177.53 56.98, 93.24 57.55, 14.44 57.78 M14.44 57.78 C4.82 57.15, 1.24 54.42, 0 43.33 M14.44 57.78 C4 59.42, 1.49 51.53, 0 43.33 M0 43.33 C1.46 34.42, 0.06 24.53, 0 14.44 M0 43.33 C-0.27 33.28, 0.6 22.05, 0 14.44 M0 14.44 C0.15 5.6, 6.31 0.44, 14.44 0 M0 14.44 C0.48 3.15, 5.28 2.3, 14.44 0" stroke="#1e1e1e" stroke-width="2" fill="none"></path></g><g transform="translate(701.424872274664 731.7608002125676) rotate(0 92.17988586425781 12.5)"><text x="92.17988586425781" y="17.52" font-family="Virgil, Segoe UI Emoji" font-size="20px" fill="#1e1e1e" text-anchor="middle" style="white-space: pre;" direction="ltr" dominant-baseline="alphabetic">response log queue</text></g><g stroke-linecap="round"><g transform="translate(407.6160119289365 1035.6167329346506) rotate(0 132.81958840635787 -129.01129969437488)"><path d="M1.14 -0.51 C14.59 -36.02, 36.25 -170.47, 80.22 -213.44 C124.19 -256.42, 234.03 -250.9, 264.97 -258.34 M0.28 -1.82 C13.63 -37.1, 35.46 -169.4, 79.39 -211.96 C123.32 -254.53, 232.71 -249.68, 263.85 -257.19" stroke="#1e1e1e" stroke-width="2" fill="none"></path></g><g transform="translate(407.6160119289365 1035.6167329346506) rotate(0 132.81958840635787 -129.01129969437488)"><path d="M241.45 -246.09 C246.5 -248.84, 253.03 -253.24, 263.85 -257.19 M241.45 -246.09 C247.22 -249.81, 253.98 -252.54, 263.85 -257.19" stroke="#1e1e1e" stroke-width="2" fill="none"></path></g><g transform="translate(407.6160119289365 1035.6167329346506) rotate(0 132.81958840635787 -129.01129969437488)"><path d="M239.55 -263.09 C245.05 -261.4, 252.08 -261.35, 263.85 -257.19 M239.55 -263.09 C245.88 -262.15, 253.16 -260.24, 263.85 -257.19" stroke="#1e1e1e" stroke-width="2" fill="none"></path></g></g><mask></mask><g stroke-linecap="round"><g transform="translate(941.3825359166997 747.1059973866691) rotate(0 135.27010324348714 0.14355507778630283)"><path d="M0.24 -1.05 C45.32 -1.28, 226.06 -0.54, 271.13 -0.36 M-1.1 1.02 C43.83 1.45, 225.31 0.8, 270.49 0.84" stroke="#1e1e1e" stroke-width="2" fill="none"></path></g><g transform="translate(941.3825359166997 747.1059973866691) rotate(0 135.27010324348714 0.14355507778630283)"><path d="M247.01 9.43 C253.46 7.34, 262.39 3.54, 270.49 0.84 M247.01 9.43 C253.95 6.29, 259.93 3.8, 270.49 0.84" stroke="#1e1e1e" stroke-width="2" fill="none"></path></g><g transform="translate(941.3825359166997 747.1059973866691) rotate(0 135.27010324348714 0.14355507778630283)"><path d="M246.98 -7.67 C253.59 -3.74, 262.54 -1.52, 270.49 0.84 M246.98 -7.67 C253.91 -5.97, 259.9 -3.61, 270.49 0.84" stroke="#1e1e1e" stroke-width="2" fill="none"></path></g></g><mask></mask><g stroke-linecap="round" transform="translate(1050.8269344567848 1343.997150878121) rotate(0 137.77777777777777 28.888888888888914)"><path d="M14.44 0 C101.5 2.44, 190.59 -0.12, 261.11 0 M14.44 0 C93.23 -0.32, 172.48 -0.2, 261.11 0 M261.11 0 C271.42 -0.5, 276.29 3.34, 275.56 14.44 M261.11 0 C269.82 -1.52, 274.58 3.96, 275.56 14.44 M275.56 14.44 C274.21 26.04, 275.84 37.1, 275.56 43.33 M275.56 14.44 C274.74 23.36, 276.23 29.62, 275.56 43.33 M275.56 43.33 C273.65 51.94, 271.47 56.21, 261.11 57.78 M275.56 43.33 C273.5 50.95, 271.93 56.62, 261.11 57.78 M261.11 57.78 C193.45 57.06, 129.36 57.56, 14.44 57.78 M261.11 57.78 C191.31 59.34, 122.9 58.85, 14.44 57.78 M14.44 57.78 C4.11 59.69, -1.44 53.55, 0 43.33 M14.44 57.78 C2.9 58.38, 1.44 55.15, 0 43.33 M0 43.33 C0.62 33.9, -1.88 23.2, 0 14.44 M0 43.33 C0.07 33.47, -0.08 22.86, 0 14.44 M0 14.44 C-0.08 5.61, 4.02 1.11, 14.44 0 M0 14.44 C-0.63 5.65, 2.64 -0.35, 14.44 0" stroke="#1e1e1e" stroke-width="2" fill="none"></path></g><g transform="translate(1114.6048037872968 1360.38603976701) rotate(0 73.99990844726562 12.5)"><text x="73.99990844726562" y="17.52" font-family="Virgil, Segoe UI Emoji" font-size="20px" fill="#1e1e1e" text-anchor="middle" style="white-space: pre;" direction="ltr" dominant-baseline="alphabetic">response queue</text></g><g stroke-linecap="round"><g transform="translate(414.60856040634894 1208.6371294469593) rotate(0 315.88696480299546 84.6971387644563)"><path d="M-1.2 0.45 C12.99 27.1, -21.46 131.01, 84.2 159.27 C189.86 187.53, 541.33 168.2, 632.78 170.01 M0.38 -0.36 C14.43 26.52, -22.39 132.53, 82.97 160.59 C188.33 188.65, 541.36 166.76, 632.54 167.99" stroke="#1e1e1e" stroke-width="2" fill="none"></path></g><g transform="translate(414.60856040634894 1208.6371294469593) rotate(0 315.88696480299546 84.6971387644563)"><path d="M609.25 177.07 C615.3 174.36, 619.11 174.88, 632.54 167.99 M609.25 177.07 C617.41 173.19, 625.38 171.39, 632.54 167.99" stroke="#1e1e1e" stroke-width="2" fill="none"></path></g><g transform="translate(414.60856040634894 1208.6371294469593) rotate(0 315.88696480299546 84.6971387644563)"><path d="M608.86 159.97 C614.91 161.12, 618.81 165.5, 632.54 167.99 M608.86 159.97 C617.31 162.09, 625.43 166.3, 632.54 167.99" stroke="#1e1e1e" stroke-width="2" fill="none"></path></g></g><mask></mask><g stroke-linecap="round" transform="translate(1673.8306449162467 646.8220285674904) rotate(0 101.66666666666663 87.22222222222221)"><path d="M127.5 22 C139.84 35.09, 156.12 44.65, 177.83 66 M127.5 22 C144.36 37.42, 160.63 51.25, 177.83 66 M177.83 66 C201.4 87.62, 204.92 89.82, 177.83 110 M177.83 66 C201.34 87.3, 203.42 86.82, 177.83 110 M177.83 110 C163.81 121.39, 147.2 134.19, 127.5 152.44 M177.83 110 C163.82 122.5, 147.25 134.63, 127.5 152.44 M127.5 152.44 C100.98 174.92, 103.85 173.45, 76.5 152.44 M127.5 152.44 C102.7 175.11, 103.34 172.87, 76.5 152.44 M76.5 152.44 C61.03 136.91, 44.87 123.02, 25.5 110 M76.5 152.44 C65.62 142.24, 53.67 131.76, 25.5 110 M25.5 110 C-1.01 88.02, -1.97 89.14, 25.5 66 M25.5 110 C0.49 87.04, -1.5 88.73, 25.5 66 M25.5 66 C43.69 52.74, 59.18 37.84, 76.5 22 M25.5 66 C42.42 51.15, 58.93 36.82, 76.5 22 M76.5 22 C102.67 0.58, 102.53 -0.3, 127.5 22 M76.5 22 C103.73 -0.9, 103.62 -1.09, 127.5 22" stroke="#1e1e1e" stroke-width="2" fill="none"></path></g><g transform="translate(1731.524024636299 708.9331396786015) rotate(0 44.13995361328125 25)"><text x="44.13995361328125" y="17.52" font-family="Virgil, Segoe UI Emoji" font-size="20px" fill="#1e1e1e" text-anchor="middle" style="white-space: pre;" direction="ltr" dominant-baseline="alphabetic">Fanout </text><text x="44.13995361328125" y="42.519999999999996" font-family="Virgil, Segoe UI Emoji" font-size="20px" fill="#1e1e1e" text-anchor="middle" style="white-space: pre;" direction="ltr" dominant-baseline="alphabetic">Exchange</text></g><g stroke-linecap="round"><g transform="translate(1343.2891322271555 741.8115944153645) rotate(0 167.10081167524788 -1.6548313699239827)"><path d="M-0.59 -0.43 C54.79 -1.03, 277.36 -3.01, 333.27 -3.69 M1.3 -1.7 C56.97 -2.13, 279.96 -2, 335.5 -2.35" stroke="#1e1e1e" stroke-width="2" fill="none"></path></g><g transform="translate(1343.2891322271555 741.8115944153645) rotate(0 167.10081167524788 -1.6548313699239827)"><path d="M312.03 6.26 C320.29 1.54, 329.34 0.98, 335.5 -2.35 M312.03 6.26 C316.75 5.53, 322.31 2.12, 335.5 -2.35" stroke="#1e1e1e" stroke-width="2" fill="none"></path></g><g transform="translate(1343.2891322271555 741.8115944153645) rotate(0 167.10081167524788 -1.6548313699239827)"><path d="M311.98 -10.84 C320.25 -9.03, 329.32 -3.05, 335.5 -2.35 M311.98 -10.84 C316.77 -8.13, 322.33 -8.1, 335.5 -2.35" stroke="#1e1e1e" stroke-width="2" fill="none"></path></g></g><mask></mask><g stroke-linecap="round" transform="translate(569.7158233456728 933.8935677961103) rotate(0 133.8888888888889 196.1111111111111)"><path d="M32 0 C110.38 -0.65, 189.09 0.06, 235.78 0 M235.78 0 C256.39 -1.92, 266.63 11.56, 267.78 32 M267.78 32 C267.24 145.26, 268.39 256.59, 267.78 360.22 M267.78 360.22 C267.69 380.6, 256.41 390.77, 235.78 392.22 M235.78 392.22 C173.42 390.18, 112.51 391.03, 32 392.22 M32 392.22 C11.23 392.39, 1.23 379.63, 0 360.22 M0 360.22 C0.57 266.51, 0.38 172.38, 0 32 M0 32 C0.91 9.15, 10.97 0.99, 32 0" stroke="#1e1e1e" stroke-width="2.5" fill="none" stroke-dasharray="8 10"></path></g><g stroke-linecap="round"><g transform="translate(1685.1263011573067 749.7672394166832) rotate(0 -419.84397936613334 107.31174981523512)"><path d="M-0.4 -0.75 C-70.27 19.24, -278.84 83.94, -418.78 119.92 C-558.71 155.89, -769.73 199.47, -840.01 215.11 M1.59 1.47 C-68.5 21.13, -279.46 82.96, -419.88 118.21 C-560.31 153.47, -770.82 197, -840.95 213.02" stroke="#1e1e1e" stroke-width="2" fill="none"></path></g><g transform="translate(1685.1263011573067 749.7672394166832) rotate(0 -419.84397936613334 107.31174981523512)"><path d="M-819.83 199.64 C-828.2 203.56, -832.73 208.04, -840.95 213.02 M-819.83 199.64 C-826.82 203.04, -833.63 209.42, -840.95 213.02" stroke="#1e1e1e" stroke-width="2" fill="none"></path></g><g transform="translate(1685.1263011573067 749.7672394166832) rotate(0 -419.84397936613334 107.31174981523512)"><path d="M-816.17 216.34 C-825.77 214.63, -831.53 213.48, -840.95 213.02 M-816.17 216.34 C-824.3 214.03, -832.35 214.73, -840.95 213.02" stroke="#1e1e1e" stroke-width="2" fill="none"></path></g></g><mask></mask><g stroke-linecap="round" transform="translate(1220.5802976432228 202.88459007750862) rotate(0 101.66666666666669 87.22222222222223)"><path d="M127.5 22 C143.26 36.77, 157.87 47.55, 177.83 66 M127.5 22 C146.3 38.49, 166.14 55.8, 177.83 66 M177.83 66 C203.63 87.02, 204.89 87.22, 177.83 110 M177.83 66 C204.15 85.94, 202.57 88.69, 177.83 110 M177.83 110 C162.65 124.27, 147.66 135.22, 127.5 152.44 M177.83 110 C164.31 121.65, 151.74 132.89, 127.5 152.44 M127.5 152.44 C103.45 173.05, 103.45 173.64, 76.5 152.44 M127.5 152.44 C101.78 175.22, 103.66 172.64, 76.5 152.44 M76.5 152.44 C57.79 134.9, 34.93 118.69, 25.5 110 M76.5 152.44 C65.79 144.34, 54.28 133.85, 25.5 110 M25.5 110 C0.15 86.44, -0.53 87.86, 25.5 66 M25.5 110 C-1.84 86.67, 0.48 86.11, 25.5 66 M25.5 66 C43.76 47.92, 62.46 32.55, 76.5 22 M25.5 66 C44.11 49.52, 63.71 33.64, 76.5 22 M76.5 22 C103.62 -1.88, 102.1 -1.32, 127.5 22 M76.5 22 C101.96 0.38, 100.29 -1.89, 127.5 22" stroke="#1e1e1e" stroke-width="2" fill="none"></path></g><g transform="translate(1278.2736773632748 264.9957011886197) rotate(0 44.13995361328125 25)"><text x="44.13995361328125" y="17.52" font-family="Virgil, Segoe UI Emoji" font-size="20px" fill="#1e1e1e" text-anchor="middle" style="white-space: pre;" direction="ltr" dominant-baseline="alphabetic">Direct </text><text x="44.13995361328125" y="42.519999999999996" font-family="Virgil, Segoe UI Emoji" font-size="20px" fill="#1e1e1e" text-anchor="middle" style="white-space: pre;" direction="ltr" dominant-baseline="alphabetic">Exchange</text></g><g mask="url(#mask-jBz7xaLZHeTc1gvdWPRDC)" stroke-linecap="round"><g transform="translate(1667.8347425450604 296.2467582907067) rotate(0 -124.11384403561829 -0.5638234348580795)"><path d="M-1.06 1.05 C-42.5 0.98, -206.73 -0.26, -248.08 -0.71 M0.58 0.56 C-41.04 0.14, -207.73 -2.42, -248.95 -2.61" stroke="#1e1e1e" stroke-width="2" fill="none"></path></g><g transform="translate(1667.8347425450604 296.2467582907067) rotate(0 -124.11384403561829 -0.5638234348580795)"><path d="M-225.37 -10.91 C-231.74 -8.02, -240.9 -6.97, -248.95 -2.61 M-225.37 -10.91 C-231.38 -9.28, -236.88 -7.03, -248.95 -2.61" stroke="#1e1e1e" stroke-width="2" fill="none"></path></g><g transform="translate(1667.8347425450604 296.2467582907067) rotate(0 -124.11384403561829 -0.5638234348580795)"><path d="M-225.55 6.19 C-231.82 3.2, -240.92 -1.62, -248.95 -2.61 M-225.55 6.19 C-231.44 3.38, -236.89 1.19, -248.95 -2.61" stroke="#1e1e1e" stroke-width="2" fill="none"></path></g></g><mask id="mask-jBz7xaLZHeTc1gvdWPRDC"><rect x="0" y="0" fill="#fff" width="2016.062430616297" height="397.37440516042284"></rect><rect x="1464.6309784654968" y="283.18293485584854" fill="#000" width="158.17984008789062" height="25" opacity="1"></rect></mask><g transform="translate(1464.6309784654968 283.18293485584854) rotate(0 79.01886539456439 12.286885063066222)"><text x="79.08992004394531" y="17.52" font-family="Virgil, Segoe UI Emoji" font-size="20px" fill="#1e1e1e" text-anchor="middle" style="white-space: pre;" direction="ltr" dominant-baseline="alphabetic">correlation_id_1</text></g><g stroke-linecap="round" transform="translate(1668.7116391211714 227.24762768500602) rotate(0 64.97081676633707 64.97081676633712)"><path d="M88.77 4.54 C98.09 7.23, 108.42 15.5, 115.06 23.22 C121.71 30.94, 126.58 40.86, 128.65 50.84 C130.72 60.82, 130.21 73.36, 127.49 83.11 C124.76 92.87, 119.23 102.09, 112.31 109.38 C105.39 116.67, 95.35 123.64, 85.97 126.87 C76.59 130.09, 65.9 130.28, 56.03 128.74 C46.16 127.19, 34.95 123.34, 26.75 117.6 C18.55 111.86, 11.41 103.25, 6.84 94.3 C2.27 85.36, -0.85 74.11, -0.67 63.92 C-0.5 53.72, 2.8 41.9, 7.89 33.12 C12.98 24.34, 21.5 16.54, 29.88 11.23 C38.25 5.92, 47.57 1.96, 58.12 1.26 C68.68 0.56, 86.7 5.7, 93.21 7.02 C99.72 8.34, 97.73 8.3, 97.2 9.18 M39.11 6.95 C47.22 1.86, 58.96 -0.99, 68.86 -0.8 C78.77 -0.61, 90.01 2.79, 98.55 8.11 C107.08 13.43, 115.07 22.46, 120.08 31.11 C125.09 39.76, 127.86 50.16, 128.61 60.01 C129.36 69.87, 128.33 81.01, 124.6 90.25 C120.88 99.49, 114.33 109.14, 106.26 115.46 C98.2 121.78, 86.52 126.39, 76.21 128.17 C65.89 129.95, 53.99 128.82, 44.37 126.15 C34.75 123.48, 25.32 119.2, 18.49 112.15 C11.65 105.11, 6.37 93.7, 3.36 83.86 C0.35 74.03, -1.32 62.84, 0.43 53.14 C2.18 43.44, 7.38 33.78, 13.86 25.66 C20.35 17.53, 35.21 7.67, 39.36 4.39 C43.51 1.11, 38.52 4.72, 38.76 5.98" stroke="#1e1e1e" stroke-width="2" fill="none"></path></g><g transform="translate(1694.161919510596 280.35853468547475) rotate(0 39.57923126220703 11.91860465116281)"><text x="39.57923126220703" y="16.705116279069756" font-family="Virgil, Segoe UI Emoji" font-size="19.069767441860456px" fill="#1e1e1e" text-anchor="middle" style="white-space: pre;" direction="ltr" dominant-baseline="alphabetic">Doctor 1</text></g><g stroke-linecap="round" transform="translate(887.6437897067145 184.9639551568738) rotate(0 104.5 27)"><path d="M13.5 0 C62.2 -1.57, 110.56 -0.51, 195.5 0 M13.5 0 C80.25 -0.05, 147.34 -0.95, 195.5 0 M195.5 0 C205.95 -0.8, 208.81 5.17, 209 13.5 M195.5 0 C206.16 -1.81, 211.24 3.96, 209 13.5 M209 13.5 C208.07 22.58, 207.5 33.99, 209 40.5 M209 13.5 C209.27 22.31, 209.25 31.56, 209 40.5 M209 40.5 C208.47 49.36, 202.9 52.85, 195.5 54 M209 40.5 C209.48 47.61, 206.17 53.15, 195.5 54 M195.5 54 C147.51 51.38, 103.42 52.76, 13.5 54 M195.5 54 C148.25 54.06, 101.62 52.71, 13.5 54 M13.5 54 C4.6 52.68, -0.03 49.83, 0 40.5 M13.5 54 C2.79 52.11, -0.88 49.69, 0 40.5 M0 40.5 C-1.84 31.81, -1.22 22.64, 0 13.5 M0 40.5 C-0.3 30.35, 0.81 19.93, 0 13.5 M0 13.5 C-0.84 2.67, 5.09 0.52, 13.5 0 M0 13.5 C-0.21 3.26, 3.52 0.13, 13.5 0" stroke="#1e1e1e" stroke-width="2" fill="none"></path></g><g transform="translate(938.9038528781012 199.4639551568738) rotate(0 53.23993682861328 12.5)"><text x="53.23993682861328" y="17.52" font-family="Virgil, Segoe UI Emoji" font-size="20px" fill="#1e1e1e" text-anchor="middle" style="white-space: pre;" direction="ltr" dominant-baseline="alphabetic">knee queue</text></g><g stroke-linecap="round" transform="translate(888.3660119289367 277.9639551568738) rotate(0 104.5 27)"><path d="M13.5 0 C69.62 -1.97, 123.4 -0.6, 195.5 0 M13.5 0 C72.51 0.87, 129.99 1.61, 195.5 0 M195.5 0 C205.94 -1.57, 210.95 4.03, 209 13.5 M195.5 0 C205.54 1.69, 207.96 3.2, 209 13.5 M209 13.5 C209.75 22.55, 210.31 29.22, 209 40.5 M209 13.5 C208.75 19.89, 208.22 25.85, 209 40.5 M209 40.5 C209.42 47.86, 205.95 53.26, 195.5 54 M209 40.5 C208.01 48.46, 202.31 52.62, 195.5 54 M195.5 54 C148.13 53.65, 101.96 54.64, 13.5 54 M195.5 54 C133.39 51.63, 71.17 52.46, 13.5 54 M13.5 54 C3.01 52.35, -0.76 49.67, 0 40.5 M13.5 54 C5.76 54.12, -0.26 47.4, 0 40.5 M0 40.5 C1.7 29.51, 0.07 20.83, 0 13.5 M0 40.5 C-0.57 31.4, 0.14 24.39, 0 13.5 M0 13.5 C-0.18 3.42, 3.65 0.11, 13.5 0 M0 13.5 C-2.15 4.48, 3.06 -1.9, 13.5 0" stroke="#1e1e1e" stroke-width="2" fill="none"></path></g><g transform="translate(935.2960808986633 292.4639551568738) rotate(0 57.56993103027344 12.5)"><text x="57.56993103027344" y="17.52" font-family="Virgil, Segoe UI Emoji" font-size="20px" fill="#1e1e1e" text-anchor="middle" style="white-space: pre;" direction="ltr" dominant-baseline="alphabetic">elbow queue</text></g><g stroke-linecap="round" transform="translate(886.1437897067145 366.9639551568738) rotate(0 104.5 27)"><path d="M13.5 0 C59.54 1.1, 103.37 1.1, 195.5 0 M13.5 0 C61.51 -1.4, 109.06 -0.84, 195.5 0 M195.5 0 C205.4 1.47, 208.09 3.37, 209 13.5 M195.5 0 C204.22 -1.96, 211.12 5.62, 209 13.5 M209 13.5 C208 23.47, 207.64 32.62, 209 40.5 M209 13.5 C208.99 20.59, 209.51 28.95, 209 40.5 M209 40.5 C208.14 48.59, 202.59 52.8, 195.5 54 M209 40.5 C207.99 51.22, 205.07 53.08, 195.5 54 M195.5 54 C149.01 55.79, 98.99 54.27, 13.5 54 M195.5 54 C152.21 53.48, 110.02 54.38, 13.5 54 M13.5 54 C5.6 54.1, -0.23 47.68, 0 40.5 M13.5 54 C5.53 52.61, 1.51 51.27, 0 40.5 M0 40.5 C0.08 35.83, -0.42 28, 0 13.5 M0 40.5 C-0.17 34.33, -0.51 29.29, 0 13.5 M0 13.5 C-1.87 4.48, 3.25 -1.66, 13.5 0 M0 13.5 C-1.49 6.42, 5.28 2.11, 13.5 0" stroke="#1e1e1e" stroke-width="2" fill="none"></path></g><g transform="translate(945.8238510470466 381.4639551568738) rotate(0 44.81993865966797 12.5)"><text x="44.81993865966797" y="17.52" font-family="Virgil, Segoe UI Emoji" font-size="20px" fill="#1e1e1e" text-anchor="middle" style="white-space: pre;" direction="ltr" dominant-baseline="alphabetic">hip queue</text></g><g stroke-linecap="round"><g transform="translate(1224.5051246292082 285.4220250589585) rotate(0 -63.43066746124691 -30.37721220782828)"><path d="M0.87 -0.48 C-20.44 -10.4, -105.83 -50.15, -126.97 -60.35 M-0.13 -1.78 C-21.69 -12, -106.95 -52.41, -127.98 -62.26" stroke="#1e1e1e" stroke-width="2" fill="none"></path></g><g transform="translate(1224.5051246292082 285.4220250589585) rotate(0 -63.43066746124691 -30.37721220782828)"><path d="M-103.09 -59.98 C-113.15 -60.84, -120.95 -60.06, -127.98 -62.26 M-103.09 -59.98 C-108.17 -59.81, -114.59 -61.61, -127.98 -62.26" stroke="#1e1e1e" stroke-width="2" fill="none"></path></g><g transform="translate(1224.5051246292082 285.4220250589585) rotate(0 -63.43066746124691 -30.37721220782828)"><path d="M-110.38 -44.51 C-117.62 -51.18, -122.7 -56.17, -127.98 -62.26 M-110.38 -44.51 C-114 -47.75, -118.8 -52.98, -127.98 -62.26" stroke="#1e1e1e" stroke-width="2" fill="none"></path></g></g><mask></mask><g stroke-linecap="round"><g transform="translate(1220.8805494870317 291.68199135841735) rotate(0 -61.007268779047536 6.4856307281045815)"><path d="M-0.11 0.4 C-20.45 2.49, -101.03 9.98, -121.15 12.03 M-1.63 -0.43 C-22.13 1.82, -101.75 10.69, -121.64 13.07" stroke="#1e1e1e" stroke-width="2" fill="none"></path></g><g transform="translate(1220.8805494870317 291.68199135841735) rotate(0 -61.007268779047536 6.4856307281045815)"><path d="M-99.28 1.89 C-106.98 7.48, -117.55 12.15, -121.64 13.07 M-99.28 1.89 C-105.87 4.58, -111.73 7.39, -121.64 13.07" stroke="#1e1e1e" stroke-width="2" fill="none"></path></g><g transform="translate(1220.8805494870317 291.68199135841735) rotate(0 -61.007268779047536 6.4856307281045815)"><path d="M-97.33 18.88 C-105.69 18.14, -116.99 16.48, -121.64 13.07 M-97.33 18.88 C-104.54 16.89, -110.93 14.99, -121.64 13.07" stroke="#1e1e1e" stroke-width="2" fill="none"></path></g></g><mask></mask><g stroke-linecap="round"><g transform="translate(1215.261839686975 296.35090392561006) rotate(0 -59.55902499013024 46.11239742051589)"><path d="M0.86 -0.94 C-18.77 14.31, -98.04 76.27, -117.95 91.94 M-0.14 1.18 C-19.83 16.58, -98.46 78.33, -118.28 93.34" stroke="#1e1e1e" stroke-width="2" fill="none"></path></g><g transform="translate(1215.261839686975 296.35090392561006) rotate(0 -59.55902499013024 46.11239742051589)"><path d="M-104.93 72.2 C-110.31 80.39, -113.08 85.48, -118.28 93.34 M-104.93 72.2 C-110.13 79.16, -114.07 88.39, -118.28 93.34" stroke="#1e1e1e" stroke-width="2" fill="none"></path></g><g transform="translate(1215.261839686975 296.35090392561006) rotate(0 -59.55902499013024 46.11239742051589)"><path d="M-94.47 85.73 C-102.93 90.06, -108.75 91.23, -118.28 93.34 M-94.47 85.73 C-103.52 87.58, -111.36 91.76, -118.28 93.34" stroke="#1e1e1e" stroke-width="2" fill="none"></path></g></g><mask></mask><g stroke-linecap="round" transform="translate(641.9215674844924 166.43617737909608) rotate(0 61.5 61.5)"><path d="M74.73 1.44 C83.49 2.82, 93.31 9.43, 100.72 15.77 C108.12 22.1, 115.36 30.73, 119.15 39.45 C122.93 48.16, 124.61 58.68, 123.43 68.06 C122.24 77.44, 117.59 87.86, 112.04 95.72 C106.49 103.59, 98.41 110.83, 90.14 115.24 C81.86 119.65, 71.87 121.97, 62.38 122.19 C52.89 122.42, 41.81 120.64, 33.19 116.6 C24.56 112.56, 16.11 105.8, 10.61 97.94 C5.11 90.08, 1.43 79.14, 0.2 69.43 C-1.03 59.71, 0.01 48.59, 3.21 39.63 C6.42 30.67, 12.18 21.89, 19.41 15.66 C26.65 9.43, 36.31 4.38, 46.61 2.27 C56.91 0.15, 74.48 2.18, 81.21 2.98 C87.94 3.78, 87.17 5.89, 86.97 7.06 M33.68 6.89 C41.14 1.95, 51.83 -1.34, 61.27 -1.23 C70.7 -1.11, 81.59 2.82, 90.28 7.58 C98.98 12.35, 108.07 19.7, 113.43 27.37 C118.8 35.04, 121.49 44.28, 122.48 53.59 C123.47 62.9, 122.67 73.95, 119.36 83.23 C116.04 92.5, 110.14 102.91, 102.6 109.27 C95.06 115.62, 83.68 119.39, 74.1 121.35 C64.53 123.31, 54 123.5, 45.14 121.04 C36.28 118.59, 27.95 113.28, 20.94 106.62 C13.92 99.97, 6.39 89.95, 3.06 81.11 C-0.26 72.28, -0.36 62.95, 1.01 53.6 C2.37 44.25, 5.91 32.85, 11.25 25.03 C16.6 17.22, 29.46 9.61, 33.06 6.72 C36.66 3.84, 32.44 7.03, 32.85 7.73" stroke="#1e1e1e" stroke-width="2" fill="none"></path></g><g transform="translate(672.2545306539221 215.44911033612345) rotate(0 31.179969787597656 12.5)"><text x="31.179969787597656" y="17.52" font-family="Virgil, Segoe UI Emoji" font-size="20px" fill="#1e1e1e" text-anchor="middle" style="white-space: pre;" direction="ltr" dominant-baseline="alphabetic">Tech 1</text></g><g stroke-linecap="round" transform="translate(638.5882341511588 328.65839960131814) rotate(0 61.5 61.5)"><path d="M58.21 0.76 C67.45 -0.84, 78.94 1.68, 87.45 5.48 C95.96 9.29, 103.64 16.16, 109.26 23.59 C114.89 31.02, 119.38 40.86, 121.2 50.08 C123.01 59.3, 122.95 69.75, 120.16 78.93 C117.37 88.11, 111.31 98.15, 104.46 105.15 C97.6 112.15, 88.1 118.18, 79.04 120.92 C69.98 123.66, 59.42 123.56, 50.11 121.58 C40.8 119.59, 30.72 114.87, 23.17 109 C15.63 103.13, 8.57 94.85, 4.85 86.36 C1.13 77.88, 0.26 67.6, 0.86 58.1 C1.45 48.6, 3.67 37.53, 8.44 29.34 C13.2 21.16, 20.65 13.75, 29.43 9 C38.21 4.24, 55.57 2.09, 61.11 0.81 C66.66 -0.47, 62.86 0.43, 62.7 1.32 M66.03 0.34 C75.45 0.4, 87.22 4.82, 95.32 9.68 C103.43 14.55, 109.95 21.42, 114.67 29.52 C119.39 37.61, 123.08 48.33, 123.63 58.27 C124.18 68.21, 122.41 80.42, 117.98 89.16 C113.55 97.9, 104.99 105.17, 97.06 110.69 C89.14 116.21, 79.48 120.81, 70.42 122.28 C61.37 123.74, 51.75 122.74, 42.75 119.47 C33.75 116.19, 23.07 109.39, 16.41 102.62 C9.76 95.85, 5.38 87.91, 2.83 78.85 C0.29 69.79, -0.61 57.62, 1.14 48.24 C2.88 38.86, 7.49 29.8, 13.32 22.57 C19.15 15.34, 27.41 8.78, 36.13 4.85 C44.86 0.92, 60.76 -0.67, 65.66 -1.03 C70.56 -1.39, 65.37 1.23, 65.53 2.69" stroke="#1e1e1e" stroke-width="2" fill="none"></path></g><g transform="translate(664.5112012878735 377.6713325583455) rotate(0 35.5899658203125 12.5)"><text x="35.5899658203125" y="17.52" font-family="Virgil, Segoe UI Emoji" font-size="20px" fill="#1e1e1e" text-anchor="middle" style="white-space: pre;" direction="ltr" dominant-baseline="alphabetic">Tech 2</text></g><g stroke-linecap="round"><g transform="translate(884.5326785956033 209.92534941120005) rotate(0 -60.52583847689354 -1.0595009152750663)"><path d="M1.11 0.59 C-18.92 0.56, -99.94 -0.62, -120.28 -1.19 M0.23 -0.15 C-19.87 -0.42, -100.52 -2.54, -120.83 -2.83" stroke="#1e1e1e" stroke-width="2" fill="none"></path></g><g transform="translate(884.5326785956033 209.92534941120005) rotate(0 -60.52583847689354 -1.0595009152750663)"><path d="M-97.16 -10.89 C-103.06 -7.07, -109.31 -5.85, -120.83 -2.83 M-97.16 -10.89 C-103.09 -9.21, -109.29 -7.79, -120.83 -2.83" stroke="#1e1e1e" stroke-width="2" fill="none"></path></g><g transform="translate(884.5326785956033 209.92534941120005) rotate(0 -60.52583847689354 -1.0595009152750663)"><path d="M-97.52 6.21 C-103.17 5.1, -109.31 1.41, -120.83 -2.83 M-97.52 6.21 C-103.38 3.79, -109.49 1.12, -120.83 -2.83" stroke="#1e1e1e" stroke-width="2" fill="none"></path></g></g><mask></mask><g stroke-linecap="round"><g transform="translate(878.9771230400479 296.8829749803127) rotate(0 -56.96212436305086 -29.281288957449362)"><path d="M0.77 0.92 C-18.39 -9.05, -94.71 -49.22, -113.81 -59.29 M-0.29 0.36 C-19.69 -9.53, -95.66 -48.29, -114.7 -58.13" stroke="#1e1e1e" stroke-width="2" fill="none"></path></g><g transform="translate(878.9771230400479 296.8829749803127) rotate(0 -56.96212436305086 -29.281288957449362)"><path d="M-89.9 -55.02 C-98.1 -55.9, -110.58 -57.16, -114.7 -58.13 M-89.9 -55.02 C-96.19 -56.3, -100.68 -57.24, -114.7 -58.13" stroke="#1e1e1e" stroke-width="2" fill="none"></path></g><g transform="translate(878.9771230400479 296.8829749803127) rotate(0 -56.96212436305086 -29.281288957449362)"><path d="M-97.7 -39.8 C-102.92 -46.7, -112.34 -53.93, -114.7 -58.13 M-97.7 -39.8 C-102.23 -44.46, -104.99 -48.77, -114.7 -58.13" stroke="#1e1e1e" stroke-width="2" fill="none"></path></g></g><mask></mask><g stroke-linecap="round"><g transform="translate(877.8660119289368 308.2571655169115) rotate(0 -53.7051148177774 28.68792373888499)"><path d="M0.11 -0.73 C-17.9 8.53, -89.35 46.77, -107.32 56.44 M-1.29 1.51 C-19.52 10.8, -90.33 47.97, -108.22 57.48" stroke="#1e1e1e" stroke-width="2" fill="none"></path></g><g transform="translate(877.8660119289368 308.2571655169115) rotate(0 -53.7051148177774 28.68792373888499)"><path d="M-91.43 38.96 C-98.61 45.86, -105.08 51.92, -108.22 57.48 M-91.43 38.96 C-96.29 43.47, -100.69 49.34, -108.22 57.48" stroke="#1e1e1e" stroke-width="2" fill="none"></path></g><g transform="translate(877.8660119289368 308.2571655169115) rotate(0 -53.7051148177774 28.68792373888499)"><path d="M-83.46 54.08 C-93.65 55.49, -103.02 56.05, -108.22 57.48 M-83.46 54.08 C-90.53 54.12, -97.26 55.56, -108.22 57.48" stroke="#1e1e1e" stroke-width="2" fill="none"></path></g></g><mask></mask><g stroke-linecap="round"><g transform="translate(880.088234151159 400.5864226611386) rotate(0 -56.700855629468464 -1.0424947683795267)"><path d="M0.09 -0.94 C-18.88 -1.18, -94.65 -1.86, -113.72 -2.17 M-1.32 1.18 C-20.49 1.2, -96.4 -0.18, -114.84 -0.68" stroke="#1e1e1e" stroke-width="2" fill="none"></path></g><g transform="translate(880.088234151159 400.5864226611386) rotate(0 -56.700855629468464 -1.0424947683795267)"><path d="M-91.17 -8.72 C-100.1 -6.75, -106 -5.33, -114.84 -0.68 M-91.17 -8.72 C-96.16 -7.33, -103.05 -5.47, -114.84 -0.68" stroke="#1e1e1e" stroke-width="2" fill="none"></path></g><g transform="translate(880.088234151159 400.5864226611386) rotate(0 -56.700855629468464 -1.0424947683795267)"><path d="M-91.54 8.38 C-100.25 5.06, -106.04 1.19, -114.84 -0.68 M-91.54 8.38 C-96.48 5.62, -103.28 3.35, -114.84 -0.68" stroke="#1e1e1e" stroke-width="2" fill="none"></path></g></g><mask></mask><g stroke-linecap="round" transform="translate(310.64378970671464 212.93617737909608) rotate(0 101.66666666666664 87.22222222222223)"><path d="M127.5 22 C142.48 34.06, 156.94 49.6, 177.83 66 M127.5 22 C138.36 31.32, 148.8 40.76, 177.83 66 M177.83 66 C202.45 89.5, 203.83 87.2, 177.83 110 M177.83 66 C202.41 87.55, 203.55 88.95, 177.83 110 M177.83 110 C156.95 126.15, 139.44 140.86, 127.5 152.44 M177.83 110 C167.26 119.33, 155.64 127.61, 127.5 152.44 M127.5 152.44 C102.9 173.24, 103.31 175.99, 76.5 152.44 M127.5 152.44 C100.07 174.34, 100.79 174.52, 76.5 152.44 M76.5 152.44 C56.49 137.62, 40.56 121.63, 25.5 110 M76.5 152.44 C63.2 142.02, 50.96 130.76, 25.5 110 M25.5 110 C-1.29 89.67, 0.68 89.83, 25.5 66 M25.5 110 C1.76 86.73, 1.84 87.79, 25.5 66 M25.5 66 C45.66 46.81, 66.59 30.62, 76.5 22 M25.5 66 C43.67 49.95, 63.05 34.38, 76.5 22 M76.5 22 C100.75 1.37, 102.8 0.46, 127.5 22 M76.5 22 C100.61 -1.95, 103.88 -0.64, 127.5 22" stroke="#1e1e1e" stroke-width="2" fill="none"></path></g><g transform="translate(368.3371694267667 275.04728849020717) rotate(0 44.13995361328125 25)"><text x="44.13995361328125" y="17.52" font-family="Virgil, Segoe UI Emoji" font-size="20px" fill="#1e1e1e" text-anchor="middle" style="white-space: pre;" direction="ltr" dominant-baseline="alphabetic">Fanout</text><text x="44.13995361328125" y="42.519999999999996" font-family="Virgil, Segoe UI Emoji" font-size="20px" fill="#1e1e1e" text-anchor="middle" style="white-space: pre;" direction="ltr" dominant-baseline="alphabetic">Exchange</text></g><g stroke-linecap="round"><g transform="translate(634.5216426852246 234.4878046155443) rotate(0 -62.594915771048406 29.654111788470345)"><path d="M0.25 -0.99 C-20.31 8.94, -103.33 48.91, -124.32 58.87 M-1.08 1.11 C-21.63 11.26, -103.87 50.39, -124.81 60.17" stroke="#1e1e1e" stroke-width="2" fill="none"></path></g><g transform="translate(634.5216426852246 234.4878046155443) rotate(0 -62.594915771048406 29.654111788470345)"><path d="M-107.22 42.41 C-112.83 47.8, -115.8 49.4, -124.81 60.17 M-107.22 42.41 C-112.31 47.57, -116.11 50.95, -124.81 60.17" stroke="#1e1e1e" stroke-width="2" fill="none"></path></g><g transform="translate(634.5216426852246 234.4878046155443) rotate(0 -62.594915771048406 29.654111788470345)"><path d="M-99.92 57.87 C-107.05 59.88, -111.62 58.08, -124.81 60.17 M-99.92 57.87 C-106.72 59.05, -112.38 58.49, -124.81 60.17" stroke="#1e1e1e" stroke-width="2" fill="none"></path></g></g><mask></mask><g stroke-linecap="round"><g transform="translate(631.645219705835 363.4316488497599) rotate(0 -61.428258975354524 -28.752197383799114)"><path d="M0.87 -0.44 C-19.73 -9.95, -102.56 -48.42, -123.37 -58.05 M-0.13 -1.72 C-20.96 -10.99, -104.33 -47.53, -124.59 -56.8" stroke="#1e1e1e" stroke-width="2" fill="none"></path></g><g transform="translate(631.645219705835 363.4316488497599) rotate(0 -61.428258975354524 -28.752197383799114)"><path d="M-99.65 -55.03 C-108.38 -56.27, -116.55 -57.89, -124.59 -56.8 M-99.65 -55.03 C-105.39 -55.67, -112.02 -55.88, -124.59 -56.8" stroke="#1e1e1e" stroke-width="2" fill="none"></path></g><g transform="translate(631.645219705835 363.4316488497599) rotate(0 -61.428258975354524 -28.752197383799114)"><path d="M-106.62 -39.41 C-112.98 -45.72, -118.91 -52.34, -124.59 -56.8 M-106.62 -39.41 C-110.61 -43.85, -115.57 -47.82, -124.59 -56.8" stroke="#1e1e1e" stroke-width="2" fill="none"></path></g></g><mask></mask><g stroke-linecap="round" transform="translate(1026.9381176282714 467.83613308213944) rotate(0 137.77777777777771 28.888888888888914)"><path d="M14.44 0 C107.27 -0.13, 202.55 -1.32, 261.11 0 M14.44 0 C68.59 -0.12, 121.75 -0.92, 261.11 0 M261.11 0 C271.64 -1.21, 276.87 6.36, 275.56 14.44 M261.11 0 C268.81 -0.1, 274.35 4.89, 275.56 14.44 M275.56 14.44 C273.67 25.39, 276.01 34.96, 275.56 43.33 M275.56 14.44 C274.5 21.54, 274.81 27.83, 275.56 43.33 M275.56 43.33 C274.26 54.63, 271.42 59.61, 261.11 57.78 M275.56 43.33 C277.31 51.69, 272.58 57.57, 261.11 57.78 M261.11 57.78 C163.22 58.3, 65.74 59.37, 14.44 57.78 M261.11 57.78 C170.31 58.51, 80.18 59, 14.44 57.78 M14.44 57.78 C3.56 59.15, 0.8 53.42, 0 43.33 M14.44 57.78 C3.42 55.83, 1.88 52.33, 0 43.33 M0 43.33 C-0.07 34.43, -1.07 24.05, 0 14.44 M0 43.33 C-0.31 31.81, 0.91 21.26, 0 14.44 M0 14.44 C1.57 4.03, 4.29 -1.42, 14.44 0 M0 14.44 C1.04 4.17, 3.2 0.7, 14.44 0" stroke="#1e1e1e" stroke-width="2" fill="none"></path></g><g transform="translate(1090.7159869587836 484.22502197102835) rotate(0 73.99990844726562 12.5)"><text x="73.99990844726562" y="17.52" font-family="Virgil, Segoe UI Emoji" font-size="20px" fill="#1e1e1e" text-anchor="middle" style="white-space: pre;" direction="ltr" dominant-baseline="alphabetic">response queue</text></g><g stroke-linecap="round"><g transform="translate(413.8949718494147 387.3388147116516) rotate(0 303.51224333107115 62.661615004929274)"><path d="M-0.89 -0.99 C13.23 18.21, -16.71 94.35, 84.72 115.41 C186.15 136.47, 520.66 123.92, 607.68 125.39 M0.84 1.11 C14.77 20.51, -17.54 96.06, 83.53 117 C184.6 137.94, 520.01 125.44, 607.26 126.74" stroke="#1e1e1e" stroke-width="2" fill="none"></path></g><g transform="translate(413.8949718494147 387.3388147116516) rotate(0 303.51224333107115 62.661615004929274)"><path d="M583.86 135.51 C589.18 132.31, 597.98 131.55, 607.26 126.74 M583.86 135.51 C591.46 132.45, 598.81 131.14, 607.26 126.74" stroke="#1e1e1e" stroke-width="2" fill="none"></path></g><g transform="translate(413.8949718494147 387.3388147116516) rotate(0 303.51224333107115 62.661615004929274)"><path d="M583.69 118.41 C589.09 120.31, 597.94 124.66, 607.26 126.74 M583.69 118.41 C591.32 120.57, 598.73 124.48, 607.26 126.74" stroke="#1e1e1e" stroke-width="2" fill="none"></path></g></g><mask></mask><g mask="url(#mask-zROu45q73OuTJR1RIS0Sz)" stroke-linecap="round"><g transform="translate(1308.5360425784354 487.12519623272647) rotate(0 229.87077208866185 -66.54215797707917)"><path d="M-0.46 0.1 C51.36 -4.32, 233.34 -5.11, 310.01 -27.49 C386.69 -49.87, 434.56 -116.46, 459.61 -134.18 M1.5 -0.89 C53.3 -5.02, 233.2 -3.83, 309.41 -25.92 C385.62 -48.01, 433.54 -115.58, 458.77 -133.44" stroke="#1e1e1e" stroke-width="2" fill="none"></path></g><g transform="translate(1308.5360425784354 487.12519623272647) rotate(0 229.87077208866185 -66.54215797707917)"><path d="M447.38 -111.18 C450.3 -115.06, 452.81 -121.41, 458.77 -133.44 M447.38 -111.18 C450.31 -114.99, 451.19 -120.45, 458.77 -133.44" stroke="#1e1e1e" stroke-width="2" fill="none"></path></g><g transform="translate(1308.5360425784354 487.12519623272647) rotate(0 229.87077208866185 -66.54215797707917)"><path d="M435.74 -123.71 C441.18 -124.72, 446.32 -128.24, 458.77 -133.44 M435.74 -123.71 C441.16 -124.83, 444.47 -127.68, 458.77 -133.44" stroke="#1e1e1e" stroke-width="2" fill="none"></path></g></g><mask id="mask-zROu45q73OuTJR1RIS0Sz"><rect x="0" y="0" fill="#fff" width="1868.277586755759" height="720.2095121868848"></rect><rect x="1538.7995581058185" y="447.07046013191285" fill="#000" width="158.17984008789062" height="25" opacity="1"></rect></mask><g transform="translate(1538.7995581058183 447.07046013191285) rotate(0 -0.6895033525830172 -26.985223896874913)"><text x="79.08992004394531" y="17.52" font-family="Virgil, Segoe UI Emoji" font-size="20px" fill="#1e1e1e" text-anchor="middle" style="white-space: pre;" direction="ltr" dominant-baseline="alphabetic">correlation_id_1</text></g><g transform="translate(49.37605583818629 10) rotate(0 70.99915168787726 162.84396997291856)"><text x="0" y="228.24210831404264" font-family="Virgil, Segoe UI Emoji" font-size="260.5503519566697px" fill="#1e1e1e" text-anchor="start" style="white-space: pre;" direction="ltr" dominant-baseline="alphabetic">1.</text></g><g transform="translate(10 633.6631060825506) rotate(0 116.59451293945312 147.81552626493922)"><text x="0" y="207.17824161293882" font-family="Virgil, Segoe UI Emoji" font-size="236.50484202390277px" fill="#1e1e1e" text-anchor="start" style="white-space: pre;" direction="ltr" dominant-baseline="alphabetic">2.</text></g><g mask="url(#mask-pQKV6suYE66HumRr35UNr)" stroke-linecap="round"><g transform="translate(1772.3274785472952 124.31230081065814) rotate(0 -198.2315285117927 57.17630036997093)"><path d="M1.04 -0.06 C-65 18.95, -331.13 95.2, -397.33 114.17 M0.13 -1.13 C-65.44 18.05, -328.92 96.29, -395.08 115.62" stroke="#1e1e1e" stroke-width="2" fill="none"></path></g><g transform="translate(1772.3274785472952 124.31230081065814) rotate(0 -198.2315285117927 57.17630036997093)"><path d="M-374.96 100.77 C-379.26 102.61, -383.69 107.61, -395.08 115.62 M-374.96 100.77 C-379.63 103.75, -386.13 108.42, -395.08 115.62" stroke="#1e1e1e" stroke-width="2" fill="none"></path></g><g transform="translate(1772.3274785472952 124.31230081065814) rotate(0 -198.2315285117927 57.17630036997093)"><path d="M-370.13 117.17 C-375.46 115.61, -380.91 117.16, -395.08 115.62 M-370.13 117.17 C-375.89 116.04, -383.61 116.54, -395.08 115.62" stroke="#1e1e1e" stroke-width="2" fill="none"></path></g></g><mask id="mask-pQKV6suYE66HumRr35UNr"><rect x="0" y="0" fill="#fff" width="2268.790535570881" height="338.6649015506"></rect><rect x="1490.5960339588423" y="168.98860118062908" fill="#000" width="166.9998321533203" height="25" opacity="1"></rect></mask><g transform="translate(1490.5960339588423 168.98860118062908) rotate(0 83.58500821441407 12.566847473336395)"><text x="83.49991607666016" y="17.52" font-family="Virgil, Segoe UI Emoji" font-size="20px" fill="#1e1e1e" text-anchor="middle" style="white-space: pre;" direction="ltr" dominant-baseline="alphabetic">correlation_id_2</text></g><g mask="url(#mask-7xsuFIKP6KpITKwL0vz3h)" stroke-linecap="round"><g transform="translate(1303.4936731838268 502.0217668892484) rotate(0 277.0801198272072 -156.15208679403025)"><path d="M-1.17 -0.04 C81.02 -3.13, 399.96 34.33, 492.52 -17.73 C585.07 -69.78, 543.92 -263.26, 554.14 -312.37 M0.42 -1.11 C83.05 -4.06, 402.76 35.48, 494.92 -16.19 C587.07 -67.85, 543.53 -261.89, 553.37 -311.09" stroke="#1e1e1e" stroke-width="2" fill="none"></path></g><g transform="translate(1303.4936731838268 502.0217668892484) rotate(0 277.0801198272072 -156.15208679403025)"><path d="M562.06 -287.65 C559.66 -294.58, 557.57 -299.48, 553.37 -311.09 M562.06 -287.65 C560.48 -294.23, 556.12 -302.06, 553.37 -311.09" stroke="#1e1e1e" stroke-width="2" fill="none"></path></g><g transform="translate(1303.4936731838268 502.0217668892484) rotate(0 277.0801198272072 -156.15208679403025)"><path d="M544.96 -287.55 C546.84 -294.34, 549.02 -299.26, 553.37 -311.09 M544.96 -287.55 C548.41 -294.14, 549.09 -302.01, 553.37 -311.09" stroke="#1e1e1e" stroke-width="2" fill="none"></path></g></g><mask id="mask-7xsuFIKP6KpITKwL0vz3h"><rect x="0" y="0" fill="#fff" width="1957.6539128382412" height="914.3259404773089"></rect><rect x="1713.1043757441912" y="471.78810877209617" fill="#000" width="166.9998321533203" height="25" opacity="1"></rect></mask><g transform="translate(1713.1043757441917 471.78810877209617) rotate(0 -132.5527779975116 -120.65696280041684)"><text x="83.49991607666016" y="17.52" font-family="Virgil, Segoe UI Emoji" font-size="20px" fill="#1e1e1e" text-anchor="middle" style="white-space: pre;" direction="ltr" dominant-baseline="alphabetic">correlation_id_2</text></g><g stroke-linecap="round" transform="translate(1779.6157696465243 52.627339341860306) rotate(0 64.1031125747528 64.1031125747528)"><path d="M79.46 2.35 C89 3.96, 99.25 10.33, 106.67 16.86 C114.09 23.4, 120.48 32.28, 123.99 41.57 C127.5 50.86, 128.8 62.89, 127.73 72.61 C126.66 82.33, 123.29 91.97, 117.57 99.87 C111.85 107.77, 102.43 115.43, 93.39 119.99 C84.34 124.54, 73.02 126.9, 63.3 127.21 C53.59 127.52, 43.78 126.37, 35.12 121.85 C26.46 117.32, 17.16 108.23, 11.36 100.04 C5.56 91.86, 1.63 82.41, 0.33 72.74 C-0.96 63.06, -0.02 51.3, 3.57 41.99 C7.16 32.67, 14.45 23.66, 21.87 16.85 C29.29 10.04, 38.03 3.54, 48.1 1.14 C58.16 -1.26, 76.05 1.8, 82.27 2.44 C88.49 3.09, 85.59 3.91, 85.39 5 M33.9 6.06 C41.92 0.77, 54.6 0.61, 64.53 0.98 C74.47 1.35, 84.97 4.05, 93.52 8.29 C102.07 12.53, 110 18.45, 115.82 26.4 C121.64 34.34, 126.96 45.88, 128.46 55.96 C129.95 66.04, 128.51 77.41, 124.79 86.87 C121.07 96.34, 113.49 105.99, 106.13 112.75 C98.78 119.51, 90.1 125.01, 80.65 127.43 C71.21 129.85, 59.19 129.7, 49.46 127.24 C39.73 124.79, 30.05 119.51, 22.3 112.71 C14.54 105.9, 6.35 95.82, 2.95 86.43 C-0.45 77.04, 0.65 66.37, 1.91 56.34 C3.17 46.3, 4.86 34.43, 10.51 26.24 C16.17 18.06, 31.74 10.36, 35.83 7.22 C39.93 4.09, 34.66 6.39, 35.07 7.43" stroke="#1e1e1e" stroke-width="2" fill="none"></path></g><g transform="translate(1803.5596012851493 105.9321724932023) rotate(0 40.33153533935547 10.970533826638473)"><text x="40.33153533935547" y="15.376300211416478" font-family="Virgil, Segoe UI Emoji" font-size="17.55285412262155px" fill="#1e1e1e" text-anchor="middle" style="white-space: pre;" direction="ltr" dominant-baseline="alphabetic">Doctor 2</text></g><g mask="url(#mask-XVXb1m3fUloIxzgsZSLMA)" stroke-linecap="round"><g transform="translate(1925.7675005707222 1119.7917770271583) rotate(0 -128.3134668690907 -1.6137291432261804)"><path d="M-1.1 -0.91 C-43.96 -1.47, -213.55 -2.36, -256.23 -2.9 M0.53 1.23 C-42.54 0.25, -213.84 -4.09, -256.96 -4.86" stroke="#1e1e1e" stroke-width="2" fill="none"></path></g><g transform="translate(1925.7675005707222 1119.7917770271583) rotate(0 -128.3134668690907 -1.6137291432261804)"><path d="M-233.29 -12.89 C-243.69 -9.41, -250.55 -7.97, -256.96 -4.86 M-233.29 -12.89 C-238.57 -10.42, -244.3 -9.76, -256.96 -4.86" stroke="#1e1e1e" stroke-width="2" fill="none"></path></g><g transform="translate(1925.7675005707222 1119.7917770271583) rotate(0 -128.3134668690907 -1.6137291432261804)"><path d="M-233.67 4.21 C-243.99 1.25, -250.7 -3.74, -256.96 -4.86 M-233.67 4.21 C-238.7 2.93, -244.36 -0.16, -256.96 -4.86" stroke="#1e1e1e" stroke-width="2" fill="none"></path></g></g><mask id="mask-XVXb1m3fUloIxzgsZSLMA"><rect x="0" y="0" fill="#fff" width="2282.3944343089033" height="1223.0192353136108"></rect><rect x="1718.3641136576862" y="1105.6780478839323" fill="#000" width="158.17984008789062" height="25" opacity="1"></rect></mask><g transform="translate(1718.3641136576864 1105.6780478839323) rotate(0 79.18401088316932 12.298900178624322)"><text x="79.08992004394531" y="17.52" font-family="Virgil, Segoe UI Emoji" font-size="20px" fill="#1e1e1e" text-anchor="middle" style="white-space: pre;" direction="ltr" dominant-baseline="alphabetic">correlation_id_1</text></g><g stroke-linecap="round" transform="translate(1926.6443971468332 1050.792646421458) rotate(0 64.97081676633707 64.9708167663371)"><path d="M36.54 6.31 C44.55 1.19, 55.77 -0.1, 65.77 0.05 C75.78 0.21, 87.79 2.31, 96.57 7.25 C105.35 12.2, 112.85 21.29, 118.44 29.73 C124.03 38.17, 128.96 47.97, 130.12 57.88 C131.29 67.79, 129.38 79.64, 125.43 89.18 C121.49 98.72, 114.04 108.62, 106.44 115.1 C98.84 121.58, 89.48 125.88, 79.85 128.07 C70.23 130.25, 58.42 130.65, 48.7 128.21 C38.97 125.77, 29.07 120.33, 21.49 113.42 C13.9 106.51, 6.7 96.16, 3.2 86.73 C-0.29 77.31, -0.87 66.95, 0.51 56.88 C1.88 46.82, 5.2 34.81, 11.45 26.34 C17.69 17.88, 33.01 9.39, 37.97 6.09 C42.94 2.79, 40.77 5.72, 41.24 6.52 M77.78 1.98 C87.47 3.03, 99.03 7.34, 106.81 13.78 C114.6 20.21, 120.82 31.37, 124.5 40.58 C128.17 49.8, 129.7 59.02, 128.87 69.06 C128.05 79.09, 124.86 91.99, 119.55 100.8 C114.24 109.61, 105.75 117.13, 97.03 121.91 C88.32 126.69, 77.35 129.03, 67.27 129.49 C57.19 129.94, 45.76 128.74, 36.53 124.66 C27.31 120.57, 17.71 113.42, 11.91 105 C6.12 96.58, 3.01 84.19, 1.79 74.13 C0.57 64.08, 1.69 53.75, 4.62 44.65 C7.55 35.55, 12.18 26.39, 19.36 19.52 C26.54 12.64, 37.77 6.28, 47.69 3.4 C57.62 0.52, 74.01 2.43, 78.92 2.24 C83.82 2.05, 77.68 1.23, 77.11 2.26" stroke="#1e1e1e" stroke-width="2" fill="none"></path></g><g transform="translate(1952.0946775362574 1103.9035534219265) rotate(0 39.57923126220703 11.91860465116278)"><text x="39.57923126220703" y="16.705116279069756" font-family="Virgil, Segoe UI Emoji" font-size="19.069767441860456px" fill="#1e1e1e" text-anchor="middle" style="white-space: pre;" direction="ltr" dominant-baseline="alphabetic">Doctor 1</text></g><g mask="url(#mask-vO2F9Di3O3htdwhvx5tAa)" stroke-linecap="round"><g transform="translate(1333.3897333463804 1346.9941204717313) rotate(0 346.4103057175205 -85.75401643672379)"><path d="M-0.01 0.79 C90.47 -10.34, 426.28 -37.86, 541.76 -66.51 C657.24 -95.17, 667.85 -153.5, 692.87 -171.14 M-1.48 0.15 C89.49 -10.84, 428.52 -36.35, 544.12 -65.26 C659.73 -94.16, 667.54 -155.55, 692.13 -173.29" stroke="#1e1e1e" stroke-width="2" fill="none"></path></g><g transform="translate(1333.3897333463804 1346.9941204717313) rotate(0 346.4103057175205 -85.75401643672379)"><path d="M683.9 -149.68 C686.87 -155.68, 686.37 -159.38, 692.13 -173.29 M683.9 -149.68 C687.44 -156.92, 689.03 -165.08, 692.13 -173.29" stroke="#1e1e1e" stroke-width="2" fill="none"></path></g><g transform="translate(1333.3897333463804 1346.9941204717313) rotate(0 346.4103057175205 -85.75401643672379)"><path d="M670.65 -160.49 C676.39 -164.25, 678.63 -165.71, 692.13 -173.29 M670.65 -160.49 C678.49 -164.06, 684.46 -168.64, 692.13 -173.29" stroke="#1e1e1e" stroke-width="2" fill="none"></path></g></g><mask id="mask-vO2F9Di3O3htdwhvx5tAa"><rect x="0" y="0" fill="#fff" width="2126.2103447814216" height="1618.5021533451788"></rect><rect x="1796.7323161314807" y="1268.5156674516284" fill="#000" width="158.17984008789062" height="25" opacity="1"></rect></mask><g transform="translate(1796.7323161314805 1268.5156674516284) rotate(0 -117.64832080449128 -7.770574777214961)"><text x="79.08992004394531" y="17.52" font-family="Virgil, Segoe UI Emoji" font-size="20px" fill="#1e1e1e" text-anchor="middle" style="white-space: pre;" direction="ltr" dominant-baseline="alphabetic">correlation_id_1</text></g><g mask="url(#mask-0n9RCMyepr5sSMVv7vQy3)" stroke-linecap="round"><g transform="translate(2032.3600479896934 960.4561880475271) rotate(0 -198.23152851179293 56.12639466160283)"><path d="M0.05 0.37 C-40.47 11.66, -177.82 48.43, -243.78 67.18 C-309.74 85.93, -370.16 105.33, -395.7 112.87 M-1.39 -0.48 C-41.48 10.98, -175.78 49.72, -241.56 68.27 C-307.34 86.83, -370.14 103.29, -396.07 110.85" stroke="#1e1e1e" stroke-width="2" fill="none"></path></g><g transform="translate(2032.3600479896934 960.4561880475271) rotate(0 -198.23152851179293 56.12639466160283)"><path d="M-375.74 96.31 C-380.15 98.31, -387.13 104.68, -396.07 110.85 M-375.74 96.31 C-382.95 100.78, -389.43 107.12, -396.07 110.85" stroke="#1e1e1e" stroke-width="2" fill="none"></path></g><g transform="translate(2032.3600479896934 960.4561880475271) rotate(0 -198.23152851179293 56.12639466160283)"><path d="M-371.15 112.78 C-376.61 110.76, -384.71 113.11, -396.07 110.85 M-371.15 112.78 C-379.89 111.47, -387.99 112.01, -396.07 110.85" stroke="#1e1e1e" stroke-width="2" fill="none"></path></g></g><mask id="mask-0n9RCMyepr5sSMVv7vQy3"><rect x="0" y="0" fill="#fff" width="2528.823105013279" height="1172.7089773707328"></rect><rect x="1706.0121295572048" y="1015.971976749106" fill="#000" width="166.9998321533203" height="25" opacity="1"></rect></mask><g transform="translate(1706.012129557205 1015.971976749106) rotate(0 128.33597260446072 0.6797259949486261)"><text x="83.49991607666016" y="17.52" font-family="Virgil, Segoe UI Emoji" font-size="20px" fill="#1e1e1e" text-anchor="middle" style="white-space: pre;" direction="ltr" dominant-baseline="alphabetic">correlation_id_2</text></g><g mask="url(#mask-A7_0UIu5ajzpfJPYlSAw6)" stroke-linecap="round"><g transform="translate(1328.3473639517717 1373.0991083609001) rotate(0 393.61965345606586 -179.9182481616303)"><path d="M0.76 0.62 C121.85 -10.09, 594.51 -4.85, 725.59 -65.07 C856.67 -125.28, 776.84 -311.62, 787.25 -360.64 M-0.3 -0.1 C121.27 -11.12, 596.85 -7.14, 727.98 -67.08 C859.12 -127.02, 776.37 -310.7, 786.49 -359.75" stroke="#1e1e1e" stroke-width="2" fill="none"></path></g><g transform="translate(1328.3473639517717 1373.0991083609001) rotate(0 393.61965345606586 -179.9182481616303)"><path d="M797.43 -337.27 C796.19 -343.2, 793.06 -347.18, 786.49 -359.75 M797.43 -337.27 C794.46 -341.96, 792.65 -347.15, 786.49 -359.75" stroke="#1e1e1e" stroke-width="2" fill="none"></path></g><g transform="translate(1328.3473639517717 1373.0991083609001) rotate(0 393.61965345606586 -179.9182481616303)"><path d="M780.43 -335.5 C782.97 -341.92, 783.62 -346.3, 786.49 -359.75 M780.43 -335.5 C781.4 -340.69, 783.55 -346.29, 786.49 -359.75" stroke="#1e1e1e" stroke-width="2" fill="none"></path></g></g><mask id="mask-A7_0UIu5ajzpfJPYlSAw6"><rect x="0" y="0" fill="#fff" width="2215.5866708639032" height="1832.9356046841608"></rect><rect x="1971.0371337698539" y="1295.333127508548" fill="#000" width="166.9998321533203" height="25" opacity="1"></rect></mask><g transform="translate(1971.0371337698534 1295.333127508548) rotate(0 -241.32234047184932 -102.24655777886483)"><text x="83.49991607666016" y="17.52" font-family="Virgil, Segoe UI Emoji" font-size="20px" fill="#1e1e1e" text-anchor="middle" style="white-space: pre;" direction="ltr" dominant-baseline="alphabetic">correlation_id_2</text></g><g stroke-linecap="round" transform="translate(2037.5485276721863 876.1723580783121) rotate(0 64.1031125747528 64.10311257475279)"><path d="M85.83 4.09 C95.04 6.48, 104.96 13.91, 111.54 21.08 C118.13 28.25, 122.85 37.49, 125.36 47.12 C127.86 56.76, 128.74 69.28, 126.57 78.88 C124.4 88.48, 118.72 97.25, 112.35 104.72 C105.98 112.18, 97.29 119.74, 88.35 123.66 C79.4 127.58, 68.54 129.38, 58.68 128.25 C48.82 127.12, 37.55 122.35, 29.18 116.85 C20.82 111.35, 13.51 103.81, 8.5 95.26 C3.49 86.7, -0.61 75.37, -0.85 65.53 C-1.09 55.68, 2.62 45.1, 7.06 36.19 C11.5 27.29, 17.72 18.1, 25.79 12.08 C33.87 6.07, 45.22 1.37, 55.49 0.11 C65.76 -1.15, 81.47 3.38, 87.42 4.51 C93.38 5.63, 91.41 5.86, 91.21 6.85 M54.4 1.62 C63.86 -0.95, 77.22 -0.62, 86.94 2.65 C96.66 5.91, 106.31 13.45, 112.73 21.23 C119.16 29.01, 123.05 39.63, 125.48 49.33 C127.91 59.02, 129.28 69.83, 127.3 79.42 C125.31 89, 120.29 99.52, 113.57 106.84 C106.86 114.17, 96.61 119.75, 87.03 123.37 C77.44 126.99, 65.64 129.68, 56.04 128.56 C46.44 127.43, 37.45 122.11, 29.43 116.61 C21.4 111.11, 12.87 104.39, 7.9 95.57 C2.92 86.74, -0.11 73.57, -0.42 63.66 C-0.73 53.74, 1.49 44.79, 6.05 36.07 C10.6 27.35, 18.54 17.23, 26.92 11.32 C35.3 5.41, 51.53 2.24, 56.32 0.63 C61.11 -0.99, 55.6 0.61, 55.66 1.62" stroke="#1e1e1e" stroke-width="2" fill="none"></path></g><g transform="translate(2061.4923593108115 929.4771912296541) rotate(0 40.33153533935547 10.97053382663847)"><text x="40.33153533935547" y="15.376300211416478" font-family="Virgil, Segoe UI Emoji" font-size="17.55285412262155px" fill="#1e1e1e" text-anchor="middle" style="white-space: pre;" direction="ltr" dominant-baseline="alphabetic">Doctor 2</text></g><g stroke-linecap="round" transform="translate(1911.8001495867923 849.1593569718846) rotate(0 133.8888888888889 196.1111111111111)"><path d="M32 0 C107.78 0.82, 181.37 -0.59, 235.78 0 M235.78 0 C256.2 1.13, 269.34 12.57, 267.78 32 M267.78 32 C264.83 139.25, 266.61 245.95, 267.78 360.22 M267.78 360.22 C265.89 380.05, 255.84 392.43, 235.78 392.22 M235.78 392.22 C157.17 393.92, 80.94 390.99, 32 392.22 M32 392.22 C9.46 393.96, 1.99 382.72, 0 360.22 M0 360.22 C-0.38 244.2, -0.06 126.71, 0 32 M0 32 C-1.57 12.16, 9.73 -0.5, 32 0" stroke="#1e1e1e" stroke-width="2.5" fill="none" stroke-dasharray="8 10"></path></g><g stroke-linecap="round"><g transform="translate(1836.575267058304 771.9456020063874) rotate(0 47.0219490654348 41.868858756893985)"><path d="M-1.06 -0.81 C14.44 13.01, 77.76 68.75, 93.74 82.75 M0.59 1.37 C15.83 15.34, 76.98 69.97, 92.63 83.76" stroke="#1e1e1e" stroke-width="2" fill="none"></path></g><g transform="translate(1836.575267058304 771.9456020063874) rotate(0 47.0219490654348 41.868858756893985)"><path d="M69.39 74.55 C76.48 77.6, 84.65 82.78, 92.63 83.76 M69.39 74.55 C75.22 76.64, 81.87 79.19, 92.63 83.76" stroke="#1e1e1e" stroke-width="2" fill="none"></path></g><g transform="translate(1836.575267058304 771.9456020063874) rotate(0 47.0219490654348 41.868858756893985)"><path d="M80.75 61.76 C83.68 69.37, 87.71 79.21, 92.63 83.76 M80.75 61.76 C83.62 67.11, 87.43 72.86, 92.63 83.76" stroke="#1e1e1e" stroke-width="2" fill="none"></path></g></g><mask></mask></svg>